<svg id="Layer_1" data-name="Layer 1" xmlns="http://www.w3.org/2000/svg" xmlns:xlink="http://www.w3.org/1999/xlink" viewBox="0 0 214.05 207.84"><defs><style>.cls-1{fill:url(#linear-gradient);}.cls-2{fill:url(#linear-gradient-2);}.cls-3{fill:url(#radial-gradient);}.cls-4{fill:url(#linear-gradient-3);}.cls-5{fill:url(#radial-gradient-2);}.cls-12,.cls-24,.cls-25,.cls-26,.cls-6,.cls-7{fill:#000100;}.cls-6{fill-opacity:0.32;}.cls-7{fill-opacity:0.33;}.cls-8{fill:url(#linear-gradient-4);}.cls-9{fill:url(#linear-gradient-5);}.cls-10{fill:url(#linear-gradient-6);}.cls-11{fill:url(#linear-gradient-7);}.cls-12{fill-opacity:0.29;}.cls-13{fill:url(#linear-gradient-8);}.cls-14{fill:#79240f;}.cls-15{fill:url(#linear-gradient-9);}.cls-16{fill:url(#linear-gradient-10);}.cls-17{fill:url(#linear-gradient-11);}.cls-18{fill:url(#linear-gradient-12);}.cls-19{fill:url(#linear-gradient-13);}.cls-20{fill:url(#linear-gradient-14);}.cls-21{fill:url(#linear-gradient-15);}.cls-22{fill:url(#linear-gradient-16);}.cls-23{fill:url(#linear-gradient-17);}.cls-24{fill-opacity:0.26;}.cls-25{fill-opacity:0.28;}.cls-26{fill-opacity:0.41;}.cls-27{fill:url(#linear-gradient-18);}.cls-28{fill:url(#linear-gradient-19);}</style><linearGradient id="linear-gradient" x1="-2565.97" y1="477.15" x2="-2564.46" y2="480.06" gradientTransform="translate(135119.31 -25099.17) scale(52.63)" gradientUnits="userSpaceOnUse"><stop offset="0" stop-color="#5c789f"/><stop offset="0.4" stop-color="#2d3b50"/><stop offset="1" stop-color="#0d0e14"/></linearGradient><linearGradient id="linear-gradient-2" x1="-2595.38" y1="425.57" x2="-2594.93" y2="426.56" gradientTransform="translate(136695.89 -22350.97) scale(52.63)" gradientUnits="userSpaceOnUse"><stop offset="0" stop-color="#000100" stop-opacity="0"/><stop offset="1" stop-color="#000100" stop-opacity="0.62"/></linearGradient><radialGradient id="radial-gradient" cx="-2896.67" cy="332.58" r="0.52" gradientTransform="matrix(197.08, -40.07, 20.84, 102.51, 564025.67, -150113.12)" gradientUnits="userSpaceOnUse"><stop offset="0" stop-color="#e6f1fb"/><stop offset="0" stop-color="#bfd9f2"/><stop offset="0.07" stop-color="#bfd9f2"/><stop offset="1" stop-color="#1d3656" stop-opacity="0.1"/></radialGradient><linearGradient id="linear-gradient-3" x1="-2596.57" y1="425.47" x2="-2595.79" y2="427.16" xlink:href="#linear-gradient-2"/><radialGradient id="radial-gradient-2" cx="-2894.09" cy="325.71" r="0.52" gradientTransform="matrix(197.08, -40.07, 20.84, 102.51, 563642.45, -149284.01)" xlink:href="#radial-gradient"/><linearGradient id="linear-gradient-4" x1="-2534.59" y1="425.31" x2="-2534.15" y2="425.7" gradientTransform="translate(133564.31 -22350.97) scale(52.63)" gradientUnits="userSpaceOnUse"><stop offset="0" stop-color="#fdec98"/><stop offset="0.35" stop-color="#fdec98"/><stop offset="0.51" stop-color="#fdec98"/><stop offset="0.63" stop-color="#da9912"/><stop offset="1" stop-color="#da9912"/></linearGradient><linearGradient id="linear-gradient-5" x1="-2534.56" y1="427.99" x2="-2534.1" y2="427.52" gradientTransform="translate(133564.31 -22350.97) scale(52.63)" gradientUnits="userSpaceOnUse"><stop offset="0" stop-color="#ffdc76"/><stop offset="0.33" stop-color="#e5913b"/><stop offset="0.45" stop-color="#ca4617"/><stop offset="0.58" stop-color="#fdec98"/><stop offset="0.7" stop-color="#da9912"/><stop offset="1" stop-color="#da9912"/></linearGradient><linearGradient id="linear-gradient-6" x1="-2536.7" y1="427.91" x2="-2537.01" y2="427.57" xlink:href="#linear-gradient-5"/><linearGradient id="linear-gradient-7" x1="-2537" y1="425.73" x2="-2536.58" y2="425.32" gradientTransform="translate(133564.31 -22350.97) scale(52.63)" gradientUnits="userSpaceOnUse"><stop offset="0" stop-color="#ca4617"/><stop offset="0.35" stop-color="#ca4617"/><stop offset="0.51" stop-color="#fdec98"/><stop offset="0.63" stop-color="#da9912"/><stop offset="1" stop-color="#da9912"/></linearGradient><linearGradient id="linear-gradient-8" x1="-2536.41" y1="425.76" x2="-2536.03" y2="427.46" gradientTransform="translate(133564.31 -22350.97) scale(52.63)" gradientUnits="userSpaceOnUse"><stop offset="0" stop-color="#da9512"/><stop offset="0.23" stop-color="#efd11a"/><stop offset="0.75" stop-color="#efd11a"/><stop offset="0.91" stop-color="#efd11a"/><stop offset="1" stop-color="#d29111"/></linearGradient><linearGradient id="linear-gradient-9" x1="-2536.18" y1="425.75" x2="-2535.84" y2="427.35" gradientTransform="translate(133564.31 -22350.97) scale(52.63)" gradientUnits="userSpaceOnUse"><stop offset="0" stop-color="#c63317"/><stop offset="0.49" stop-color="#da9004"/><stop offset="0.8" stop-color="#da9004"/><stop offset="1" stop-color="#c43e17"/></linearGradient><linearGradient id="linear-gradient-10" x1="-2535.51" y1="426.51" x2="-2535.76" y2="427.54" gradientTransform="translate(133564.31 -22350.97) scale(52.63)" gradientUnits="userSpaceOnUse"><stop offset="0" stop-color="#ad3117"/><stop offset="1" stop-color="#cb7612"/></linearGradient><linearGradient id="linear-gradient-11" x1="-2535.51" y1="426.02" x2="-2535.87" y2="427.1" gradientTransform="translate(133564.31 -22350.97) scale(52.63)" gradientUnits="userSpaceOnUse"><stop offset="0" stop-color="#ecd501"/><stop offset="0.87" stop-color="#ecd501"/><stop offset="1" stop-color="#ffee5b"/></linearGradient><linearGradient id="linear-gradient-12" x1="-2536.28" y1="425.74" x2="-2536.19" y2="425.93" gradientTransform="translate(133564.31 -22350.97) scale(52.63)" gradientUnits="userSpaceOnUse"><stop offset="0" stop-color="#ffd512"/><stop offset="1" stop-color="#fef9de"/></linearGradient><linearGradient id="linear-gradient-13" x1="-2535.64" y1="425.99" x2="-2535.24" y2="427.4" gradientTransform="translate(133564.31 -22350.97) scale(52.63)" gradientUnits="userSpaceOnUse"><stop offset="0" stop-color="#bd3718"/><stop offset="0.19" stop-color="#bd3718"/><stop offset="0.41" stop-color="#cb860e"/><stop offset="1" stop-color="#c27014"/></linearGradient><linearGradient id="linear-gradient-14" x1="-2535.66" y1="426.54" x2="-2535.39" y2="427.47" gradientTransform="translate(133564.31 -22350.97) scale(52.63)" gradientUnits="userSpaceOnUse"><stop offset="0" stop-color="#ffd40a"/><stop offset="0.9" stop-color="#ffd40a"/><stop offset="1" stop-color="#d27f0f"/></linearGradient><linearGradient id="linear-gradient-15" x1="-2534.77" y1="425.72" x2="-2535.08" y2="427.56" gradientTransform="translate(133564.31 -22350.97) scale(52.63)" gradientUnits="userSpaceOnUse"><stop offset="0" stop-color="#a62316"/><stop offset="0.29" stop-color="#c67313"/><stop offset="0.64" stop-color="#c67313"/><stop offset="1" stop-color="#c35717"/></linearGradient><linearGradient id="linear-gradient-16" x1="-2535.01" y1="425.76" x2="-2535.32" y2="427.38" gradientTransform="translate(133564.31 -22350.97) scale(52.63)" gradientUnits="userSpaceOnUse"><stop offset="0" stop-color="#cd7d11"/><stop offset="0.31" stop-color="#efd802"/><stop offset="1" stop-color="#efd802"/></linearGradient><linearGradient id="linear-gradient-17" x1="-2534.91" y1="425.74" x2="-2534.83" y2="425.9" xlink:href="#linear-gradient-12"/><linearGradient id="linear-gradient-18" x1="-2537.33" y1="427.37" x2="-2533.71" y2="425.87" gradientTransform="translate(133564.31 -22350.97) scale(52.63)" gradientUnits="userSpaceOnUse"><stop offset="0" stop-color="#502a13"/><stop offset="0.35" stop-color="#d08f2a"/><stop offset="0.42" stop-color="#e1d02e"/><stop offset="0.5" stop-color="#f6e580"/><stop offset="0.54" stop-color="#f6e580"/><stop offset="0.6" stop-color="#e1d02e"/><stop offset="0.69" stop-color="#d08f2a"/><stop offset="1" stop-color="#462b16"/></linearGradient><linearGradient id="linear-gradient-19" x1="-2534.14" y1="428.87" x2="-2536.01" y2="426.22" gradientTransform="translate(133534.46 -22404.12) scale(52.63)" gradientUnits="userSpaceOnUse"><stop offset="0" stop-color="#ffe12b"/><stop offset="0.14" stop-color="#fff7c7" stop-opacity="0"/><stop offset="0.82" stop-color="#fff7c7" stop-opacity="0"/><stop offset="1" stop-color="#ffe12b"/></linearGradient></defs><title>WoWLogos</title><path class="cls-1" d="M188.34,103.64c0,41.79-32.93,75.69-73.58,75.7s-73.62-33.86-73.63-75.65v0c0-41.8,32.93-75.69,73.58-75.7s73.62,33.86,73.63,75.65v0.05Z"/><path class="cls-2" d="M121.94,29L92.47,30.83a3.89,3.89,0,0,0-1.84.57L64.84,48a3.9,3.9,0,0,0-.11,6.56c3.4,2.29,6.77,4.93,7.71,7.37,2,5.4,4.35,13.31,6.33,20.15q1.3,4.57,2.76,9.09c0.42,1.26.76,2.39,1.15,3.34a7.85,7.85,0,0,0,1.61,2.76,4.7,4.7,0,0,0,.46.35,16.17,16.17,0,0,0,5.75,2.88,54.59,54.59,0,0,0,7.14,1.61,47.24,47.24,0,0,0,6.79.57c2.07,0,3.54.49,6-1l0.35-.23a4,4,0,0,0,1.38-1.84,10.43,10.43,0,0,0,.57-1.27c0.32-.9.61-1.91,0.92-3.11a121.27,121.27,0,0,0,3.11-17.61c0.27-2.61.58-4.34,0-6.67,0-.12,0-0.22,0-0.35h-0.12a43,43,0,0,0-4.72-11.63,36.12,36.12,0,0,0-9.21-10.7,3.32,3.32,0,0,1,1.15-.69l14.39,0.11a3.93,3.93,0,0,0,1.27-.23,5.67,5.67,0,0,0,2.42-.69,5.82,5.82,0,0,0,2.42-2.3,7.11,7.11,0,0,0,.81-2.65l0.92-8.4A3.9,3.9,0,0,0,121.94,29h0Z"/><path id="b" class="cls-3" d="M122.16,32.9l-0.92,8.39c-0.26,2.39-1.26,1.8-3,2.38l-15.16-.06c-4.47,1.44-5,3.82-4.66,5.85,8.49,4.72,13.8,18.13,14.57,22.11,1.09,3.84-3.11,25.52-4.6,26.71-2.52,1.57-17.42-.63-21.18-3.68-2-2.27-6.77-22.72-11.05-34.07-1.58-4.06-5.81-6.92-9.21-9.21L92.7,34.74Z"/><path class="cls-4" d="M48.61,75.61a3.43,3.43,0,0,0-3,2.53l-8.86,30.27a3.42,3.42,0,0,0,1.38,3.8c3.4,2.29,6.92,5,7.94,7.6a3.26,3.26,0,0,0,.35.57,2.32,2.32,0,0,1,.11.35c0.16,0.69.34,1.87,0.57,3.22,0.47,2.7,1.11,6.35,2,10.13a54.91,54.91,0,0,0,3.46,11.05c1.57,3.37,3.68,6.5,7.37,7.71-0.9-.29-0.15,0,0.35.35s1.15,0.73,2,1.27c1.61,1.07,3.68,2.41,5.75,3.8s4.17,2.86,5.87,3.91c0.85,0.53,1.62.91,2.3,1.27a8.94,8.94,0,0,0,1,.46,2.63,2.63,0,0,0,2.19.23A3.38,3.38,0,0,0,82,162.28a5.13,5.13,0,0,0,.46-1.27,17.52,17.52,0,0,0,.57-2.3c0.27-1.68.46-3.74,0.69-5.75s0.46-4,.69-5.41a10,10,0,0,1,.23-1,3.65,3.65,0,0,0,.81-0.46,4.68,4.68,0,0,0,.81-3A10.68,10.68,0,0,0,85,138.69a68.43,68.43,0,0,0-6-9.56c-4.73-6.66-10.13-13.21-12.55-15.88-0.2-.66-0.32-1.34-0.57-2.07-0.32-.91-0.68-1.89-0.92-2.76a59,59,0,0,0,16.23,4.83,3.37,3.37,0,0,0,1-.11,21.46,21.46,0,0,0,5.3-1.61,11.59,11.59,0,0,0,3-1.73,6.13,6.13,0,0,0,2.19-3.91,3.43,3.43,0,0,0-.57-2.3c-6.55-9.78-16-12.28-25.78-15.88l-5.65-6.91a3.42,3.42,0,0,0-1.27-.92L50.33,76a3.36,3.36,0,0,0-1.72-.35h0Z"/><path id="e" class="cls-5" d="M64.24,90.59c10.39,3.88,18.91,5.85,25,14.91-0.26,2.38-5.47,4-7.59,4.34-6.29-.76-12.08-3-17.77-5.59-5.62-1.21-.73,8.7-0.43,10.74,4,4.37,23.93,28.78,18.46,29.45-1.34.17-1.92,16.19-3.17,16.41S62.29,150,60.92,149.57c-8.76-2.88-10.19-30.2-11.62-31-1.57-4.06-5.81-6.92-9.21-9.21l8.86-30.25L58.09,83l6.15,7.59h0Z"/><path class="cls-6" d="M187.85,63.94l-0.11-25.56a4.55,4.55,0,0,0-4.49-4.6h-0.11l-23.37-.23a4.57,4.57,0,0,0-3.34,7.71L179.91,67a4.56,4.56,0,0,0,7.94-3.11h0Z"/><path class="cls-6" d="M186.32,63.94L186.2,38.38a3,3,0,0,0-3-3l-23.37-.23a3,3,0,0,0-2.3,5.06L181,66a3,3,0,0,0,5.29-2.07h0Z"/><path class="cls-6" d="M185.32,63.94l-0.11-25.56a2,2,0,0,0-2.07-2.07l-23.37-.23a2,2,0,0,0-1.5,3.45l23.48,25.78A2,2,0,0,0,185.32,63.94Z"/><path class="cls-7" d="M184.2,64L184.08,38.4a1,1,0,0,0-.11-0.35,1,1,0,0,0-.23-0.35l-0.11-.11a0.94,0.94,0,0,0-.46-0.11L183,37.36l-23.37-.23a1,1,0,0,0-.23.11,1,1,0,0,0-.35.11,0.74,0.74,0,0,0-.34.57,1,1,0,0,0,0,.57,1,1,0,0,0,.23.35l23.48,25.78a1,1,0,0,0,.81.23,1,1,0,0,0,.46-0.11l0.11-.11a1,1,0,0,0,.23-0.35A1,1,0,0,0,184.2,64h0Z"/><path class="cls-8" d="M161.16,38.56l21.84-.1-0.21,23.46L161.16,38.56h0Z"/><path class="cls-6" d="M161.3,172.41l25.56-.11a4.55,4.55,0,0,0,4.6-4.5s0-.07,0-0.1l0.23-23.37A4.56,4.56,0,0,0,184,141l-25.78,23.48A4.56,4.56,0,0,0,161.3,172.41Z"/><path class="cls-6" d="M161.38,170.88l25.56-.11a3,3,0,0,0,3-3l0.23-23.37a3,3,0,0,0-5.06-2.3l-25.78,23.48a3,3,0,0,0,2.07,5.29h0Z"/><path class="cls-6" d="M161.3,169.88l25.56-.11a2.05,2.05,0,0,0,2.07-2s0,0,0,0l0.23-23.37a2,2,0,0,0-3.45-1.5l-25.78,23.48A2,2,0,1,0,161.3,169.88Z"/><path class="cls-7" d="M161.2,168.77l25.56-.11a1,1,0,0,0,.35-0.11,1,1,0,0,0,.35-0.23l0.11-.11a1,1,0,0,0,.11-0.46l0.11-.11L188,144.26a1.11,1.11,0,0,0-.11-0.23,1.06,1.06,0,0,0-.11-0.35,0.74,0.74,0,0,0-.57-0.34,1,1,0,0,0-.57,0,1,1,0,0,0-.35.23l-25.78,23.48a1.28,1.28,0,0,0-.11,1.27,1.11,1.11,0,0,0,.11.11,0.92,0.92,0,0,0,.35.23,1,1,0,0,0,.34.11h0Z"/><path class="cls-9" d="M186.61,141.28l0.08,26.13H161.62l25-26.13h0Z"/><path class="cls-6" d="M34.22,142l0.11,25.56a4.56,4.56,0,0,0,4.52,4.6h0.09l23.37,0.23a4.56,4.56,0,0,0,3.34-7.71L42.16,138.91A4.57,4.57,0,0,0,34.22,142h0Z"/><path class="cls-6" d="M35.83,142.1l0.11,25.56a3,3,0,0,0,3,3l23.37,0.23a3,3,0,0,0,2.3-5.06L41.13,140a3,3,0,0,0-5.3,2.07h0Z"/><path class="cls-6" d="M36.75,142l0.11,25.56a2,2,0,0,0,2.07,2.07l23.37,0.23a2,2,0,0,0,1.5-3.45L40.32,140.64A2,2,0,0,0,36.75,142h0Z"/><path class="cls-7" d="M37.77,141.94l0.11,25.56a1,1,0,0,0,.11.35,1,1,0,0,0,.23.35,0.84,0.84,0,0,0,.11.11,1,1,0,0,0,.46.11,0.84,0.84,0,0,0,.11.11l23.37,0.23a1,1,0,0,0,.23-0.11,1.06,1.06,0,0,0,.35-0.11A0.74,0.74,0,0,0,63.2,168a1,1,0,0,0,0-.57A1.07,1.07,0,0,0,63,167L39.49,141.25a1,1,0,0,0-.81-0.23,1,1,0,0,0-.46.11l-0.11.11a1,1,0,0,0-.23.35,1,1,0,0,0-.11.34h0Z"/><path class="cls-10" d="M62.89,167.33H39.29V141.61Z"/><path class="cls-6" d="M68.53,33.82L43,33.93a4.56,4.56,0,0,0-4.6,4.52s0,0.06,0,.09L38.14,61.91a4.56,4.56,0,0,0,7.71,3.34L71.63,41.76A4.56,4.56,0,0,0,68.53,33.82Z"/><path class="cls-6" d="M68.53,35.43L43,35.55a3,3,0,0,0-3,3L39.75,61.91a3,3,0,0,0,5.06,2.3L70.6,40.73a3,3,0,0,0-2.07-5.29h0Z"/><path class="cls-6" d="M68.53,36.35L43,36.47a2,2,0,0,0-2.07,2s0,0,0,.07L40.67,61.91a2,2,0,0,0,3.45,1.5L69.91,39.92A2,2,0,0,0,68.53,36.35Z"/><path class="cls-7" d="M68.53,37.39L43,37.5a1,1,0,0,0-.35.11,1,1,0,0,0-.35.23L42.16,38a1,1,0,0,0-.11.46l-0.11.11L41.71,61.91a0.88,0.88,0,0,0,.11.23,1,1,0,0,0,.11.35,1,1,0,0,0,.23.23,1.48,1.48,0,0,0,.92.11,1,1,0,0,0,.35-0.23L69.21,39.11a1,1,0,0,0,.23-0.81,1,1,0,0,0-.11-0.46l-0.11-.11a1.49,1.49,0,0,0-.69-0.34h0Z"/><path id="h" class="cls-11" d="M42.78,61.92l0.14-23.33,25.59-.11L42.78,61.92h0Z"/><path class="cls-12" d="M65,55.35a1.48,1.48,0,0,0-1.06.63,1.45,1.45,0,0,0-.21,1.22l2.53,8.86,17.5,77.81-1.61,8.52a1.46,1.46,0,0,0,1.18,1.7l0.21,0h25.44a1.47,1.47,0,0,0,1.38-1.84l-1.61-8.17,4.38-16.69,5.41,16.93-2.42,7.83a1.47,1.47,0,0,0,1.38,2l28.66,0.12a1.46,1.46,0,0,0,1.38-2l-3.34-9,13.12-75.4,5-10.48A1.47,1.47,0,0,0,161,55.34H136a1.47,1.47,0,0,0-1.5,1.73l1.5,8.52-8.63,48.69-13.47-52a1.47,1.47,0,0,0-2.76,0l-13,51.68L87.29,65.59l1.38-8.52a1.47,1.47,0,0,0-.46-1.27,1.45,1.45,0,0,0-1-.46H65Z"/><path class="cls-12" d="M64.5,54.19a2.67,2.67,0,0,0-2,3.21l0,0.13,2.53,8.75H65l17.5,77.58-1.61,8.29a2.69,2.69,0,0,0,2.65,3.11h25.44a2.69,2.69,0,0,0,2.65-3.22L110,144.21l3.22-12.32,4,12.43-2.3,7.48a2.71,2.71,0,0,0,.41,2.36,2.67,2.67,0,0,0,2.12,1.1l28.67,0.12a2.69,2.69,0,0,0,2.53-3.57l-3.22-8.75,13-74.59,5-10.48a2.69,2.69,0,0,0-2.42-3.8H136a2.69,2.69,0,0,0-2.65,3.11l1.38,8.29-7.48,42.82-12.09-46.5a2.69,2.69,0,0,0-5.3,0l-11.74,46.5L88.55,65.24l1.27-7.94a2.68,2.68,0,0,0-2.65-3.11H65.07a2.73,2.73,0,0,0-.57,0h0Z"/><path class="cls-12" d="M64.26,53a3.82,3.82,0,0,0-3,4.53q0,0.16.08,0.31l2.53,8.63v0.23L81.3,143.64l-1.61,8.29a3.82,3.82,0,0,0,3.8,4.49h25.44a3.83,3.83,0,0,0,3.8-4.6L111.11,144l2.19-8.06,2.65,8.4-2.19,7.14a3.83,3.83,0,0,0,3.68,5l28.66,0.11a3.83,3.83,0,0,0,3.57-5.06l-3.11-8.4,13-74.36,4.83-10.24A3.83,3.83,0,0,0,161,53H136a3.82,3.82,0,0,0-3.8,4.49l1.38,8.06-6.67,37.53-10.7-41.44a3.83,3.83,0,0,0-7.37,0L98.22,103.81,89.71,65.48,91,57.42A3.82,3.82,0,0,0,87.17,53H65.07A3.69,3.69,0,0,0,64.26,53Z"/><path class="cls-12" d="M64.5,51.66A5.21,5.21,0,0,0,60,58.22l2.53,8.63v0.23l17.38,76.78-1.5,7.71a5.2,5.2,0,0,0,5.06,6.21h25.44a5.21,5.21,0,0,0,4.26-2.19,5.21,5.21,0,0,0,4.26,2.19l28.66,0.12a5.21,5.21,0,0,0,4.83-7l-2.88-7.94,12.78-73.67,4.83-10.13A5.21,5.21,0,0,0,161,51.66H136a5.21,5.21,0,0,0-5.18,6.1l1.38,7.83-5.53,31-9.09-35.22a5.2,5.2,0,0,0-10.13,0L98.34,97.59,91.08,65.36l1.27-7.71a5.2,5.2,0,0,0-5.18-6H65.07A5,5,0,0,0,64.5,51.66ZM113.42,141l1.15,3.46-1.27,3.91-0.81-3.91Z"/><path id="m" class="cls-12" d="M65,56.84l2.62,8.83,17.56,78.1-1.73,8.87H109l-1.76-8.55L113,122.17l7,22.22-2.48,8.26,28.69,0.06-3.53-9.37L155.82,67.7,161,56.83H136l1.45,8.79-9.75,55.56L112.5,62.6,98,120.15,85.79,65.36l1.38-8.52H65Z"/><path class="cls-13" d="M65.07,56.84L77.52,66l16.66,77.48-10.7,9.12,1.74-8.89-17.5-78Z"/><path class="cls-14" d="M94.19,143.52l-10.72,9.12,25.51,0-9.84-9-5-.06h0Z"/><path class="cls-15" d="M87.11,56.93l-9.58,9.14,16.66,77.45,4.91,0-1-24.1L86.25,65.7l0.86-8.78h0Z"/><path class="cls-16" d="M109,152.64l-9.81-9.05,13.77-52.91L113,122.14l-5.78,22,1.77,8.55h0Z"/><path class="cls-17" d="M112.5,62.48l0.46,28L99.13,143.62l-0.91-23.93Z"/><path class="cls-18" d="M65,56.84l12.49,9.21,9.64-9.18Z"/><path class="cls-19" d="M112.47,62.54l0.46,28.12,12.68,53,7.9,0-21-81.13h0Z"/><path class="cls-20" d="M112.93,90.69L113,122.08l7,22.29-2.48,8.24,8.18-8.94-12.75-53h0Z"/><path class="cls-14" d="M133.47,143.62l-7.77,0-8.27,9,28.71,0.05-12.67-9.07h0Z"/><path class="cls-21" d="M155.8,67.58l5.13-10.68-13.82,7.82-13.69,78.92,12.76,9.08-3.53-9.38L155.8,67.58h0Z"/><path class="cls-22" d="M137.43,65.59l-1.49-8.66,11.19,7.74-13.71,78.89-5.75-22.39Z"/><path class="cls-23" d="M135.92,56.9l11.13,7.85L161,56.85Z"/><path class="cls-24" d="M113,19.78a84.14,84.14,0,1,0,84,84.14A84.11,84.11,0,0,0,113,19.78Zm-0.35,14.5a69.12,69.12,0,1,1-69,69.07,68.9,68.9,0,0,1,69-69.07h0Z"/><path class="cls-25" d="M113,18.51a85.41,85.41,0,1,0,85.3,85.41A85.39,85.39,0,0,0,113,18.51Zm-0.35,17a67.86,67.86,0,1,1-67.69,67.8A67.62,67.62,0,0,1,112.61,35.55Z"/><path class="cls-26" d="M113,16.44a87.48,87.48,0,1,0,87.37,87.48A87.5,87.5,0,0,0,113,16.44Zm-0.35,21.18A65.79,65.79,0,1,1,47,103.35,65.51,65.51,0,0,1,112.61,37.62Z"/><path id="x" class="cls-27" d="M113,21a82.88,82.88,0,1,0,82.77,82.88A82.82,82.82,0,0,0,113,21h0Zm-0.35,12a70.19,70.19,0,0,1,70.1,70.33c0,38.87-31.38,70.45-70.1,70.45A70.39,70.39,0,0,1,112.61,33Z"/><path class="cls-28" d="M110.87,21.58a78.62,78.62,0,1,0,78.51,78.62A78.5,78.5,0,0,0,110.87,21.58ZM110.52,25a74.51,74.51,0,0,1,74.36,74.59c0,41.17-33.31,74.71-74.36,74.71a74.65,74.65,0,0,1,0-149.3h0Z"/></svg>