<svg id="Layer_1" data-name="Layer 1" xmlns="http://www.w3.org/2000/svg" xmlns:xlink="http://www.w3.org/1999/xlink" viewBox="0 0 214.05 207.84"><defs><style>.cls-1{fill:url(#linear-gradient);}.cls-2,.cls-3,.cls-4,.cls-7{fill:#000100;}.cls-2{fill-opacity:0.26;}.cls-3{fill-opacity:0.28;}.cls-4{fill-opacity:0.41;}.cls-5{fill:url(#linear-gradient-2);}.cls-6{fill:url(#linear-gradient-3);}.cls-7{fill-opacity:0.29;}.cls-8{fill:url(#linear-gradient-4);}.cls-9{fill:#79240f;}</style><linearGradient id="linear-gradient" x1="34.17" y1="106.51" x2="179.88" y2="106.51" gradientUnits="userSpaceOnUse"><stop offset="0" stop-color="#5c789f"/><stop offset="0.4" stop-color="#2d3b50"/><stop offset="1" stop-color="#0d0e14"/></linearGradient><linearGradient id="linear-gradient-2" x1="-2227.83" y1="-253.12" x2="-2224.28" y2="-254.6" gradientTransform="translate(117270.57 13465.81) scale(52.63)" gradientUnits="userSpaceOnUse"><stop offset="0" stop-color="#502a13"/><stop offset="0.35" stop-color="#d08f2a"/><stop offset="0.42" stop-color="#e1d02e"/><stop offset="0.5" stop-color="#f6e580"/><stop offset="0.54" stop-color="#f6e580"/><stop offset="0.6" stop-color="#e1d02e"/><stop offset="0.69" stop-color="#d08f2a"/><stop offset="1" stop-color="#462b16"/></linearGradient><linearGradient id="linear-gradient-3" x1="-2224.69" y1="-251.63" x2="-2226.52" y2="-254.23" gradientTransform="translate(117240.73 13412.65) scale(52.63)" gradientUnits="userSpaceOnUse"><stop offset="0" stop-color="#ffe12b"/><stop offset="0.14" stop-color="#fff7c7" stop-opacity="0"/><stop offset="0.82" stop-color="#fff7c7" stop-opacity="0"/><stop offset="1" stop-color="#ffe12b"/></linearGradient><linearGradient id="linear-gradient-4" x1="49.77" y1="106.16" x2="165.06" y2="106.16" gradientUnits="userSpaceOnUse"><stop offset="0" stop-color="#ffd512"/><stop offset="1" stop-color="#fef9de"/></linearGradient></defs><title>WoWLogos</title><path class="cls-1" d="M174.16,134.87a73,73,0,1,1,5.72-28.36A73.15,73.15,0,0,1,174.16,134.87Z"/><path class="cls-2" d="M107,23.71a82.42,82.42,0,1,0,82.31,82.42A82.39,82.39,0,0,0,107,23.71Zm-0.34,14.21a67.71,67.71,0,1,1-67.54,67.65,67.49,67.49,0,0,1,67.54-67.65h0Z"/><path class="cls-3" d="M107,22.47a83.67,83.67,0,1,0,83.55,83.67A83.65,83.65,0,0,0,107,22.47Zm-0.34,16.69a66.47,66.47,0,1,1-66.3,66.41A66.24,66.24,0,0,1,106.69,39.16Z"/><path class="cls-4" d="M107,20.44a85.7,85.7,0,1,0,85.58,85.7A85.71,85.71,0,0,0,107,20.44Zm-0.34,20.75a64.44,64.44,0,1,1-64.27,64.38A64.17,64.17,0,0,1,106.69,41.19Z"/><path id="x" class="cls-5" d="M107,25a81.18,81.18,0,1,0,81.07,81.18A81.13,81.13,0,0,0,107,25h0Zm-0.34,11.73a69,69,0,1,1-68.78,68.9A68.76,68.76,0,0,1,106.69,36.68Z"/><path class="cls-6" d="M105,25.48a77,77,0,1,0,76.9,77A76.9,76.9,0,0,0,105,25.48Zm-0.34,3.38a73,73,0,0,1,72.84,73.07c0,40.33-32.63,73.18-72.84,73.18a73.12,73.12,0,0,1,0-146.24h0Z"/><path class="cls-7" d="M155.9,65.07C135.13,44.5,111,39.38,87.67,41.28S46.13,57.75,46.13,57.75L68.4,79.58,40.21,126l11.34,1.51s-3.66,6.6-6.14,12a5.38,5.38,0,0,0,1.6,6.19c5.42,4.8,12.16,1.58,21.4,1.58s26.09,3.22,33,12.31,7.6,11.14,7.6,11.14h14.68L126.73,154h2.06l18.9,14.07s21.36-13.92,26.09-37.52C178.76,105.69,171.72,80.76,155.9,65.07Z"/><path class="cls-7" d="M154.09,66.49c-20-19.86-43.37-24.8-65.86-23S48.77,58,48.77,58l21.5,21.08L42.86,124.81l10.94,1.46s-4,6.86-6.37,12.1a5.2,5.2,0,0,0,1.54,6c5.23,4.63,11.74,1.52,20.66,1.52S95.31,149,102,157.74s7.34,10.75,7.34,10.75h13.24l3-16.13,3.29-.34L147,165.6s19.76-13.09,24.32-35.87C176.16,105.7,169.37,81.62,154.09,66.49Z"/><path class="cls-7" d="M151.89,67.54C132.56,48.39,110.07,43.62,88.38,45.4A75.81,75.81,0,0,0,51.66,58.72L72.39,79,45.44,123.76,56,125.16s-3.46,6.86-5.77,11.91c-1,2.08-1.08,4.69.48,6.08,5,4.47,11.74.65,20.34,0.65s25.38,3.82,31.79,12.27,7.18,9.2,7.18,9.2h11.41l2.86-15.55,4.52-.33,17.59,13.1s18.59-12.9,23-34.87C174,104.44,166.62,82.14,151.89,67.54Z"/><path class="cls-7" d="M150.34,68.91C131.7,50.44,110,45.84,89.09,47.55S54.66,58.93,54.66,58.93l20,19.61L48.17,122.75l10.18,1.35s-3.83,7-6.05,11.86c-0.92,2-1.11,4.57.43,5.87,3.62,3.05,9.94,0,18.23,0s26.43,4.3,32.61,12.46,6.93,8.87,6.93,8.87h9.8l2.76-15,5.93-.79,17,12.63s17-12,21.28-33.16C171.7,104.5,164.55,83,150.34,68.91Z"/><path class="cls-8" d="M164.92,119.52c-1.5,22.1-20.3,34.5-20.3,34.5l-10.68-10.44V138c0-2.26-7.92-7.07-7.92-7.07-1.69.71-8.31,9.77-8.31,11.13s-0.45,19.4-.45,19.4H112l-5.86-5.71A63.7,63.7,0,0,0,89.93,144c-5.53-2.63-11.41-3.68-16.87-4.6-11.58-2-21.5,2.41-22.4,1.35L61,123.88l-11.25-1.13L76.9,78.17l-15-18s5-5.56,22-8.42S117,53.06,136.05,65.27,166.43,97.42,164.92,119.52Z"/><path class="cls-9" d="M57.66,135.48l19.61-25.08s13-.75,14.42-4.7-4.47-4.81-10.38-3.37-7.21,3.32-11.1,8.07-6.05,9.23-9.8,10.67-5.48.58-5.48,0.58,19.17-30.18,22.2-33.76S96.58,80.12,111,90.07s17.3,27.75,12,36.58-8.07,11.71-8.07,11.71,0,17.74-1,18-11.83-9.86-23.69-16C76.83,133.46,59.25,136.2,57.66,135.48Z"/><path class="cls-9" d="M125.48,126.28l7.59,4.87s10.6-10.75,7.45-22.5S130.2,84.86,116.73,78.27s-22.17-6.45-25.41-5.73-6.4,3.87-7.11,5-2.15,4.42,4.3,4c9.17-.57,18.92.87,27.94,9.31,9.66,9,11.15,16.46,11.63,23.8A22.28,22.28,0,0,1,125.48,126.28Z"/><path class="cls-9" d="M67.26,61.76l12.51,14.5a63.31,63.31,0,0,1,7.11-4.6c2.13-.95,4.41-2.09,2.7-8.77s-3-8.67-6.91-8.11a39,39,0,0,0-11.15,3.41C68.83,59.63,67.26,60.62,67.26,61.76Z"/><path class="cls-9" d="M92.31,54.7S93.78,68.44,93.78,69s14.79,3.18,15.64,2.65,4.83-9.05,5.69-10.76,0.5-3.13-2-3.84-6-2.37-12.41-2.74C95.63,54,93.11,53.76,92.31,54.7Z"/><path class="cls-9" d="M114.12,72.71c-1-1.72,4.27-10.52,4.83-12.23s5-.28,11.09,3.41,9.53,5.4,7.11,8.82-8,9.25-9,9.11S115,74.13,114.12,72.71Z"/><path class="cls-9" d="M143.57,74.28a25.14,25.14,0,0,1,6.54,6.55c2.56,3.56,5.12,6.83,5,8s0.14,2-3.13,3.68-7.94,5.28-9.8,5.14-2.71-.85-5-4.27-3.41-5.46-5.69-7.14-1.28-3.1,1.28-5.38,5.12-5.28,6.4-6.55S142.23,73.34,143.57,74.28Z"/><path class="cls-9" d="M143,101c-0.9,1,.71,5.12,1,9s0.28,8,0,8.82,3.56,2.56,8.67,2.7,8.39,1.45,8.82-4.18,0.14-11.18-1.71-16.3-1.84-6.11-5.11-5.12S144.12,99.7,143,101Z"/><path class="cls-9" d="M143.2,123.64c-1.36.86-2.65,6.08-4.52,8.89s-3.12,4.06,0,7.18,7,6.55,7.8,6.86,3.12-1.25,7-7.18,5-9.67,3.59-11.08a26.53,26.53,0,0,0-6.21-3.51C147.91,123.55,144.7,122.69,143.2,123.64Z"/></svg>