<svg id="Layer_1" data-name="Layer 1" xmlns="http://www.w3.org/2000/svg" xmlns:xlink="http://www.w3.org/1999/xlink" viewBox="0 0 214.05 207.84"><defs><style>.cls-1{fill:url(#linear-gradient);}.cls-2,.cls-3,.cls-4,.cls-7{fill:#000100;}.cls-2{fill-opacity:0.26;}.cls-3{fill-opacity:0.28;}.cls-4{fill-opacity:0.41;}.cls-5{fill:url(#linear-gradient-2);}.cls-6{fill:url(#linear-gradient-3);}.cls-7{fill-opacity:0.29;}.cls-8{fill:url(#linear-gradient-4);}.cls-9{fill:url(#linear-gradient-5);}.cls-10{fill:url(#linear-gradient-6);}.cls-11{fill:url(#linear-gradient-7);}.cls-12{fill:url(#linear-gradient-8);}.cls-13{fill:url(#linear-gradient-9);}.cls-14{fill:url(#linear-gradient-10);}.cls-15{fill:url(#linear-gradient-11);}.cls-16{fill:url(#linear-gradient-12);}</style><linearGradient id="linear-gradient" x1="38.56" y1="108.96" x2="184.27" y2="108.96" gradientUnits="userSpaceOnUse"><stop offset="0" stop-color="#5c789f"/><stop offset="0.4" stop-color="#2d3b50"/><stop offset="1" stop-color="#0d0e14"/></linearGradient><linearGradient id="linear-gradient-2" x1="-2537.32" y1="-253.09" x2="-2533.78" y2="-254.57" gradientTransform="translate(133564.31 13466.75) scale(52.63)" gradientUnits="userSpaceOnUse"><stop offset="0" stop-color="#502a13"/><stop offset="0.35" stop-color="#d08f2a"/><stop offset="0.42" stop-color="#e1d02e"/><stop offset="0.5" stop-color="#f6e580"/><stop offset="0.54" stop-color="#f6e580"/><stop offset="0.6" stop-color="#e1d02e"/><stop offset="0.69" stop-color="#d08f2a"/><stop offset="1" stop-color="#462b16"/></linearGradient><linearGradient id="linear-gradient-3" x1="-2534.19" y1="-251.6" x2="-2536.02" y2="-254.2" gradientTransform="translate(133534.46 13413.59) scale(52.63)" gradientUnits="userSpaceOnUse"><stop offset="0" stop-color="#ffe12b"/><stop offset="0.14" stop-color="#fff7c7" stop-opacity="0"/><stop offset="0.82" stop-color="#fff7c7" stop-opacity="0"/><stop offset="1" stop-color="#ffe12b"/></linearGradient><linearGradient id="linear-gradient-4" x1="54.16" y1="108.61" x2="169.45" y2="108.61" gradientUnits="userSpaceOnUse"><stop offset="0" stop-color="#ffd512"/><stop offset="1" stop-color="#fef9de"/></linearGradient><linearGradient id="linear-gradient-5" x1="70.53" y1="104.65" x2="129.83" y2="138.89" gradientUnits="userSpaceOnUse"><stop offset="0" stop-color="#c43e17"/><stop offset="0.28" stop-color="#da9004"/><stop offset="0.45" stop-color="#eaa100"/><stop offset="0.66" stop-color="#da9004"/><stop offset="1" stop-color="#c63317"/></linearGradient><linearGradient id="linear-gradient-6" x1="87.03" y1="82.7" x2="147.62" y2="117.68" xlink:href="#linear-gradient-5"/><linearGradient id="linear-gradient-7" x1="73.67" y1="60.35" x2="93.97" y2="72.07" xlink:href="#linear-gradient-5"/><linearGradient id="linear-gradient-8" x1="95.91" y1="58.51" x2="116.22" y2="70.24" xlink:href="#linear-gradient-5"/><linearGradient id="linear-gradient-9" x1="120.48" y1="67.85" x2="139.46" y2="78.81" xlink:href="#linear-gradient-5"/><linearGradient id="linear-gradient-10" x1="136.73" y1="82.57" x2="157.96" y2="94.83" xlink:href="#linear-gradient-5"/><linearGradient id="linear-gradient-11" x1="146.46" y1="104.98" x2="168.09" y2="117.47" xlink:href="#linear-gradient-5"/><linearGradient id="linear-gradient-12" x1="143.62" y1="132.54" x2="158.43" y2="141.09" xlink:href="#linear-gradient-5"/></defs><title>WoWLogos</title><path class="cls-1" d="M178.55,137.31A73,73,0,1,1,184.27,109,73.15,73.15,0,0,1,178.55,137.31Z"/><path class="cls-2" d="M111.42,26.16a82.42,82.42,0,1,0,82.31,82.42A82.39,82.39,0,0,0,111.42,26.16Zm-0.34,14.21A67.71,67.71,0,1,1,43.53,108a67.49,67.49,0,0,1,67.54-67.65h0Z"/><path class="cls-3" d="M111.42,24.92A83.67,83.67,0,1,0,195,108.59,83.65,83.65,0,0,0,111.42,24.92Zm-0.34,16.69A66.47,66.47,0,1,1,44.78,108,66.24,66.24,0,0,1,111.08,41.61Z"/><path class="cls-4" d="M111.42,22.89A85.7,85.7,0,1,0,197,108.58,85.71,85.71,0,0,0,111.42,22.89Zm-0.34,20.75A64.44,64.44,0,1,1,46.81,108,64.17,64.17,0,0,1,111.08,43.63Z"/><path id="x" class="cls-5" d="M111.42,27.4a81.18,81.18,0,1,0,81.07,81.18A81.13,81.13,0,0,0,111.42,27.4h0Zm-0.34,11.73A69,69,0,1,1,42.3,108,68.76,68.76,0,0,1,111.08,39.12Z"/><path class="cls-6" d="M109.37,27.93a77,77,0,1,0,76.9,77A76.9,76.9,0,0,0,109.37,27.93ZM109,31.31a73,73,0,0,1,72.84,73.07c0,40.33-32.63,73.18-72.84,73.18a73.12,73.12,0,0,1,0-146.24h0Z"/><path class="cls-7" d="M160.29,67.52c-20.76-20.57-44.93-25.7-68.23-23.79S50.51,60.19,50.51,60.19L72.79,82,44.6,128.44,55.94,130s-3.66,6.6-6.14,12a5.38,5.38,0,0,0,1.6,6.19c5.42,4.8,12.16,1.58,21.4,1.58s26.09,3.22,33,12.31,7.6,11.14,7.6,11.14H128l3.08-16.71h2.06l18.9,14.07s21.36-13.92,26.09-37.52C183.15,108.14,176.11,83.2,160.29,67.52Z"/><path class="cls-7" d="M158.48,68.93c-20-19.86-43.37-24.8-65.86-23S53.16,60.44,53.16,60.44l21.5,21.08L47.25,127.25l10.94,1.46s-4,6.86-6.37,12.1a5.2,5.2,0,0,0,1.54,6c5.23,4.63,11.74,1.52,20.66,1.52s25.68,3.11,32.33,11.88,7.34,10.75,7.34,10.75h13.24l3-16.13,3.29-.34L151.42,168s19.76-13.09,24.32-35.87C180.55,108.14,173.76,84.07,158.48,68.93Z"/><path class="cls-7" d="M156.28,70c-19.33-19.15-41.82-23.92-63.52-22.15A75.81,75.81,0,0,0,56,61.17L76.78,81.49,49.83,126.2l10.55,1.4s-3.46,6.86-5.77,11.91c-1,2.08-1.08,4.69.48,6.08,5,4.47,11.74.65,20.34,0.65s25.38,3.82,31.79,12.27,7.18,9.2,7.18,9.2h11.41l2.86-15.55,4.52-.33,17.59,13.1s18.59-12.9,23-34.87C178.43,106.89,171,84.59,156.28,70Z"/><path class="cls-7" d="M154.73,71.35C136.09,52.88,114.4,48.29,93.47,50S59,61.38,59,61.38L79,81,52.56,125.2l10.18,1.35s-3.83,7-6.05,11.86c-0.92,2-1.11,4.57.43,5.87,3.62,3.05,9.94,0,18.23,0s26.43,4.3,32.61,12.46,6.93,8.87,6.93,8.87h9.8l2.76-15,5.93-.79,17,12.63s17-12,21.28-33.16C176.09,106.95,168.94,85.43,154.73,71.35Z"/><path class="cls-8" d="M169.31,122c-1.5,22.1-20.3,34.5-20.3,34.5L138.34,146v-5.56c0-2.26-7.92-7.07-7.92-7.07-1.69.71-8.31,9.77-8.31,11.13s-0.45,19.4-.45,19.4h-5.26l-5.86-5.71a63.7,63.7,0,0,0-16.21-11.79c-5.53-2.63-11.41-3.68-16.87-4.6-11.58-2-21.5,2.41-22.4,1.35l10.37-16.84-11.25-1.13L81.29,80.62l-15-18s5-5.56,22-8.42,33.08,1.35,52.17,13.56S170.82,99.86,169.31,122Z"/><path class="cls-9" d="M62,137.92l19.61-25.08s13-.75,14.42-4.7-4.47-4.81-10.38-3.37-7.21,3.32-11.1,8.07-6.05,9.23-9.8,10.67-5.48.58-5.48,0.58S78.48,93.9,81.51,90.32s19.46-7.76,33.88,2.19,17.3,27.75,12,36.58-8.07,11.71-8.07,11.71,0,17.74-1,18-11.83-9.86-23.69-16C81.22,135.9,63.63,138.64,62,137.92Z"/><path class="cls-10" d="M129.86,128.72l7.59,4.87s10.6-10.75,7.45-22.5-10.32-23.79-23.79-30.38S99,74.27,95.71,75s-6.4,3.87-7.11,5-2.15,4.42,4.3,4c9.17-.57,18.92.87,27.94,9.31,9.66,9,11.15,16.46,11.63,23.8A22.28,22.28,0,0,1,129.86,128.72Z"/><path class="cls-11" d="M71.65,64.21l12.51,14.5a63.31,63.31,0,0,1,7.11-4.6c2.13-.95,4.41-2.09,2.7-8.77s-3-8.67-6.91-8.11a39,39,0,0,0-11.15,3.41C73.22,62.07,71.65,63.07,71.65,64.21Z"/><path class="cls-12" d="M96.7,57.15s1.47,13.74,1.47,14.31,14.79,3.18,15.64,2.65,4.83-9.05,5.69-10.76,0.5-3.13-2-3.84-6-2.37-12.41-2.74C100,56.48,97.5,56.2,96.7,57.15Z"/><path class="cls-13" d="M118.51,75.16c-1-1.72,4.27-10.52,4.83-12.23s5-.28,11.09,3.41,9.53,5.4,7.11,8.82-8,9.25-9,9.11S119.36,76.58,118.51,75.16Z"/><path class="cls-14" d="M148,76.73a25.14,25.14,0,0,1,6.54,6.55c2.56,3.56,5.12,6.83,5,8s0.14,2-3.13,3.68-7.94,5.28-9.8,5.14-2.71-.85-5-4.27-3.41-5.46-5.69-7.14-1.28-3.1,1.28-5.38,5.12-5.28,6.4-6.55S146.62,75.78,148,76.73Z"/><path class="cls-15" d="M147.37,103.42c-0.9,1,.71,5.12,1,9s0.28,8,0,8.82,3.56,2.56,8.67,2.7,8.39,1.45,8.82-4.18,0.14-11.18-1.71-16.3-1.84-6.11-5.11-5.12S148.51,102.14,147.37,103.42Z"/><path class="cls-16" d="M147.59,126.09c-1.36.86-2.65,6.08-4.52,8.89s-3.12,4.06,0,7.18,7,6.55,7.8,6.86,3.12-1.25,7-7.18,5-9.67,3.59-11.08a26.53,26.53,0,0,0-6.21-3.51C152.29,126,149.09,125.14,147.59,126.09Z"/></svg>