<svg id="Layer_1" data-name="Layer 1" xmlns="http://www.w3.org/2000/svg" xmlns:xlink="http://www.w3.org/1999/xlink" viewBox="0 0 214.05 207.84"><defs><style>.cls-1{fill:url(#linear-gradient);}.cls-2{fill:#000100;fill-opacity:0.41;}.cls-3{fill:url(#linear-gradient-2);}.cls-4{fill:url(#linear-gradient-3);}.cls-5{fill:url(#linear-gradient-4);}.cls-6{fill:url(#linear-gradient-5);}.cls-7{fill:#9d9d9c;}.cls-8{fill:#1d1d1b;}.cls-9{fill:#575756;}.cls-10{fill:#878787;}.cls-11{fill:#706f6f;}.cls-12{fill:#be1622;}.cls-13{fill:#e30613;}.cls-14{fill:#fff;}</style><linearGradient id="linear-gradient" x1="39.03" y1="107.62" x2="184.74" y2="107.62" gradientUnits="userSpaceOnUse"><stop offset="0" stop-color="#5c789f"/><stop offset="0.4" stop-color="#2d3b50"/><stop offset="1" stop-color="#0d0e14"/></linearGradient><linearGradient id="linear-gradient-2" x1="-2537.31" y1="-20.97" x2="-2533.77" y2="-22.44" gradientTransform="translate(133564.31 1248.44) scale(52.63)" gradientUnits="userSpaceOnUse"><stop offset="0" stop-color="#502a13"/><stop offset="0.35" stop-color="#d08f2a"/><stop offset="0.42" stop-color="#e1d02e"/><stop offset="0.5" stop-color="#f6e580"/><stop offset="0.54" stop-color="#f6e580"/><stop offset="0.6" stop-color="#e1d02e"/><stop offset="0.69" stop-color="#d08f2a"/><stop offset="1" stop-color="#462b16"/></linearGradient><linearGradient id="linear-gradient-3" x1="-2534.18" y1="-19.48" x2="-2536.01" y2="-22.08" gradientTransform="translate(133534.46 1195.28) scale(52.63)" gradientUnits="userSpaceOnUse"><stop offset="0" stop-color="#ffe12b"/><stop offset="0.14" stop-color="#fff7c7" stop-opacity="0"/><stop offset="0.82" stop-color="#fff7c7" stop-opacity="0"/><stop offset="1" stop-color="#ffe12b"/></linearGradient><linearGradient id="linear-gradient-4" x1="63.94" y1="158.26" x2="37.41" y2="120.36" gradientUnits="userSpaceOnUse"><stop offset="0" stop-color="#c43e17"/><stop offset="0.28" stop-color="#da9004"/><stop offset="0.45" stop-color="#f5b100"/><stop offset="0.66" stop-color="#da9004"/><stop offset="1" stop-color="#c63317"/></linearGradient><linearGradient id="linear-gradient-5" x1="68.21" y1="145.67" x2="50.81" y2="120.83" gradientUnits="userSpaceOnUse"><stop offset="0" stop-color="#ffd512"/><stop offset="0.56" stop-color="#f8c68e"/><stop offset="1" stop-color="#fccb41"/></linearGradient></defs><title>WoWLogos</title><path class="cls-1" d="M179,136a73,73,0,1,1,5.72-28.36A73.15,73.15,0,0,1,179,136Z"/><path class="cls-2" d="M111.89,21.55a85.71,85.71,0,0,0-85.58,85.7,80.6,80.6,0,0,0,6.27,32.2A15.86,15.86,0,0,0,31,142.61a8.86,8.86,0,0,0-.36,3.82c-0.84,1.16-3.92,7.74-3.74,12a19.42,19.42,0,0,0,2.78,8.28s3.8-5.52,6.56-7.41a12.93,12.93,0,0,1,6.3-1.84A85.61,85.61,0,1,0,111.89,21.55Zm-0.34,149.63a64.44,64.44,0,1,1,64.16-64.5A64.38,64.38,0,0,1,111.55,171.18Z"/><path class="cls-2" d="M111.89,23.58a83.65,83.65,0,0,0-83.55,83.67A79.19,79.19,0,0,0,34.21,138c-0.34.85-1.26,2.35-1.89,3.88a14.73,14.73,0,0,0-.58,4.18c-0.83,1-3.53,7-3.71,10.86a18.62,18.62,0,0,0,1.69,7.78s4.14-5.27,6.74-6.79c2.22-1.3,6.4-1.78,7.59-1.9A83.58,83.58,0,1,0,111.89,23.58Zm-0.34,149.63a66.47,66.47,0,1,1,66.19-66.53A66.43,66.43,0,0,1,111.55,173.21Z"/><path class="cls-2" d="M111.89,24.82A82.43,82.43,0,0,0,35.1,136.9c-0.32.9-1.38,3.9-1.72,5.16a20.57,20.57,0,0,0-.43,3.61c-0.79.87-3.66,6-4.11,9.57a19.07,19.07,0,0,0,.74,7.23s4-4.58,6.35-5.82c2-1.07,7.44-1.64,8.82-1.77A82.34,82.34,0,1,0,111.89,24.82Zm-0.34,149.63A67.71,67.71,0,1,1,179,106.68,67.68,67.68,0,0,1,111.55,174.45Z"/><path id="x" class="cls-3" d="M111.89,26.06A81.18,81.18,0,1,0,193,107.24a81.13,81.13,0,0,0-81.07-81.18h0Zm-0.34,11.73a69,69,0,1,1-68.78,68.9A68.76,68.76,0,0,1,111.55,37.79Z"/><path class="cls-4" d="M109.84,26.59a77,77,0,1,0,76.9,77A76.9,76.9,0,0,0,109.84,26.59ZM109.5,30A73,73,0,0,1,182.35,103c0,40.33-32.63,73.18-72.84,73.18A73.12,73.12,0,0,1,109.5,30h0Z"/><path class="cls-5" d="M68.17,115.94a34,34,0,0,0-14.9-1.88c-8.35.83-16.21,6.55-16.21,6.55s9.12-2.83,13.83-2.07c3.43,0.56,4.41,2.07,4.41,2.07s-8.58-.23-11.09.72c0,0,4.05,1.73,2.5,2.41s-7.39,3.37-9.06,5.78a18.53,18.53,0,0,0-2.38,5.7l3-2.33a16.22,16.22,0,0,0-3,6.8l-0.6,3.82,2.15-1.91s-4.29,7.63-5.13,11.56a33.27,33.27,0,0,0-.83,6.2,11.44,11.44,0,0,1,7.39-5.6c5.37-1.31,11.09-.18,14.84-4.05,1.27-1.31,1.85-1.79,1.85-1.79s-0.12,3-1,3.7c0,0,1.19.48,3.1-1.07s2.86-5.25,2.86-5.25l-1.13,7.21s4.44-2.24,5.54-4.59a10.31,10.31,0,0,0,1.19-4.22,16.5,16.5,0,0,1,.54,4.1,10.81,10.81,0,0,1-3.76,6.8l-1.91,1.67a12.93,12.93,0,0,0,8.58-6.8c3.22-6,3.46-8.94,3.46-8.94a13,13,0,0,1-.59,7.51,21.8,21.8,0,0,1-3.7,6.68,15.07,15.07,0,0,0,8.42-7.87,37.72,37.72,0,0,0,2.75-12.11Z"/><path class="cls-6" d="M71,117.93a22.28,22.28,0,0,0-9.77-1.23c-5.47.55-10.63,4.29-10.63,4.29s6-1.86,9.07-1.36C61.9,120,62.54,121,62.54,121s-5.63-.15-7.27.47c0,0,2.66,1.13,1.64,1.58s-4.85,2.21-5.94,3.79a12.14,12.14,0,0,0-1.56,3.73l2-1.53a10.63,10.63,0,0,0-2,4.46L49,136l1.41-1.25s-2.81,5-3.36,7.58a21.81,21.81,0,0,0-.55,4.06,7.5,7.5,0,0,1,4.85-3.67c3.52-.86,7.27-0.12,9.73-2.66,0.83-.86,1.21-1.17,1.21-1.17s-0.08,2-.63,2.42c0,0,.78.31,2-0.7a7.82,7.82,0,0,0,1.88-3.44l-0.74,4.73s2.91-1.47,3.63-3a6.76,6.76,0,0,0,.78-2.76,10.81,10.81,0,0,1,.35,2.69,7.09,7.09,0,0,1-2.46,4.45l-1.25,1.09a8.48,8.48,0,0,0,5.63-4.45C73.64,136,73.79,134,73.79,134A8.51,8.51,0,0,1,73.4,139,14.29,14.29,0,0,1,71,143.35a9.88,9.88,0,0,0,5.52-5.16,24.72,24.72,0,0,0,1.8-7.94Z"/><path class="cls-7" d="M71.76,114.63s-4.39-2.21-4.48,2.71a22.75,22.75,0,0,0,7.24,16.19c6.8,6.08,9.59,1.35,9.59,1.35Z"/><path class="cls-8" d="M71.76,114.63l0.26-.52a5.67,5.67,0,0,0-2.29-.56,2.79,2.79,0,0,0-2.06.81,4.23,4.23,0,0,0-1,3v0.27A23.38,23.38,0,0,0,74.14,134c2.72,2.43,4.9,3.25,6.6,3.25a4.64,4.64,0,0,0,2.93-1,4.15,4.15,0,0,0,1-1l0.18-.3L72.17,114.19,72,114.11l-0.26.52-0.5.3,12.36,20.25,0.5-.3-0.5-.3,0.18,0.11-0.18-.11h0l0.18,0.11-0.18-.11a3.14,3.14,0,0,1-.72.76,3.47,3.47,0,0,1-2.16.72c-1.31,0-3.23-.63-5.82-3a22.26,22.26,0,0,1-7.05-15.49v-0.25a3.12,3.12,0,0,1,.64-2.18,1.62,1.62,0,0,1,1.23-.45,4.05,4.05,0,0,1,1.22.22l0.4,0.15,0.11,0h0l0.26-.52-0.5.3Z"/><path class="cls-9" d="M84.72,134.78s4.56,3,4.29,4.41-2.53,9.9-3,13.47-2.18,3.93-1.87,5.84S83,165.07,83,165.07,95.9,146.23,98.4,141.94s3-5.93,1.11-8.21S89,125.15,89,125.15Z"/><path class="cls-8" d="M84.72,134.78l-0.32.49,0.18,0.12a25.63,25.63,0,0,1,2.31,1.76A9.33,9.33,0,0,1,88,138.31a1.59,1.59,0,0,1,.4.75v0c-0.12.66-.76,3.16-1.42,5.9s-1.35,5.76-1.59,7.6a8,8,0,0,1-1,3.14c-0.2.36-.41,0.69-0.58,1.06a3,3,0,0,0-.29,1.27,3.32,3.32,0,0,0,0,.55,3.43,3.43,0,0,1,0,.55,17.74,17.74,0,0,1-.56,3.62c-0.14.6-.29,1.13-0.39,1.51s-0.18.61-.18,0.61l-1.13,3.66,2.16-3.16s3.22-4.71,6.75-10,7.37-11,8.65-13.21c1.48-2.55,2.34-4.21,2.35-5.81a4.64,4.64,0,0,0-1.31-3.07A24.34,24.34,0,0,0,97.42,131c-3.25-2.75-8.06-6.29-8.07-6.29l-0.58-.43L84,135l0.41,0.27,0.32-.49L85.25,135l4.29-9.63L89,125.15l-0.34.47,1.36,1c1.25,0.94,3.16,2.39,4.94,3.83a37.67,37.67,0,0,1,4.09,3.64,3.48,3.48,0,0,1,1,2.32c0,1.13-.71,2.7-2.2,5.22-1.23,2.11-5.08,7.9-8.61,13.14-1.77,2.62-3.45,5.11-4.7,6.94l-2.05,3L83,165.07l0.56,0.17s0.3-1,.59-2.19a18.67,18.67,0,0,0,.6-3.9,4.56,4.56,0,0,0-.05-0.74,2.16,2.16,0,0,1,0-.36,1.85,1.85,0,0,1,.19-0.79,11.49,11.49,0,0,0,1.72-4.52c0.23-1.74.91-4.75,1.57-7.48s1.29-5.19,1.43-6l0-.23a1.88,1.88,0,0,0-.25-0.88,10.17,10.17,0,0,0-2.52-2.59c-0.95-.75-1.78-1.29-1.79-1.3l-0.32.49L85.25,135Z"/><path class="cls-9" d="M73,114.63a82.82,82.82,0,0,1-1.19-8.94c0-2.38.36-3.1-4.05-5s-14.66-7.81-14.66-7.81S74.47,94.93,78,95.32,82.06,110,82.06,110l-3.65,4.19Z"/><path class="cls-8" d="M73,114.63l0.57-.1s-0.07-.41-0.19-1.06c-0.17-1-.42-2.49-0.63-4a33,33,0,0,1-.37-3.8c0-.32,0-0.62,0-0.91a5.19,5.19,0,0,0-.12-1.27,3.06,3.06,0,0,0-1.22-1.72A14.92,14.92,0,0,0,68,100.15c-2.16-.93-5.83-2.89-8.94-4.6-1.55-.86-3-1.65-4-2.23l-1.67-1-0.29.5L53,93.45l3.4,0.33c6.18,0.6,18.87,1.83,21.52,2.12a1.27,1.27,0,0,1,.81.53,9,9,0,0,1,1.38,3.21,44.45,44.45,0,0,1,1.1,6.76c0.1,1,.16,1.92.2,2.56s0.05,1,.05,1l0.58,0-0.44-.38-3.49,4-5.18.47L73,114.63l0.57-.1-0.57.1,0.05,0.58,5.65-.51,4-4.54v-0.23a68.52,68.52,0,0,0-.71-7.24,25.76,25.76,0,0,0-1.26-5.13,6.92,6.92,0,0,0-1-1.87,2.42,2.42,0,0,0-1.58-.95c-3.56-.39-24.92-2.45-24.93-2.45L50.48,92l2.33,1.34s2.57,1.48,5.69,3.2,6.79,3.67,9,4.65a9.73,9.73,0,0,1,3.25,1.88,1.58,1.58,0,0,1,.38.7,4.12,4.12,0,0,1,.08,1c0,0.27,0,.57,0,0.91a45.17,45.17,0,0,0,.6,5.45c0.3,1.95.6,3.59,0.6,3.59l0.1,0.52,0.53,0Z"/><path class="cls-10" d="M77.53,112.69s-4.71-1.15-5.6,1.44-2.15,6,1.52,12.07,9.57,9.3,11.27,8.58,3-5.37,3-5.37Z"/><path class="cls-8" d="M77.53,112.69l0.14-.56a11.1,11.1,0,0,0-2.38-.27,5.94,5.94,0,0,0-2.23.38,2.84,2.84,0,0,0-1.68,1.71,13.81,13.81,0,0,0-1,4.75A15.08,15.08,0,0,0,73,126.5a23.38,23.38,0,0,0,5.92,6.58,16,16,0,0,0,2.9,1.75,6.07,6.07,0,0,0,2.37.63,2,2,0,0,0,.8-0.14A3.58,3.58,0,0,0,86.39,134a18.46,18.46,0,0,0,1.93-4.39l0.07-.25L77.9,112.18l-0.23-.06-0.14.56L77,113l10.23,16.73,0.5-.3-0.56-.16-0.06.19a20.92,20.92,0,0,1-1,2.61,9,9,0,0,1-.83,1.44,2.25,2.25,0,0,1-.81.75,0.92,0.92,0,0,1-.35.05,5,5,0,0,1-1.89-.53,20.57,20.57,0,0,1-8.31-7.87,13.93,13.93,0,0,1-2.39-7.22,12.69,12.69,0,0,1,.92-4.37,1.67,1.67,0,0,1,1-1,4.82,4.82,0,0,1,1.78-.29,9.82,9.82,0,0,1,1.48.12l0.46,0.08,0.12,0h0l0.14-.56L77,113Z"/><path class="cls-11" d="M79.91,110.29s-3.86.35-2,7.05,7.42,12.56,9.84,12.58,3.79-2.3,2.75-2.84S79.91,110.29,79.91,110.29Z"/><path class="cls-8" d="M79.91,110.29l-0.05-.58a3.12,3.12,0,0,0-1.56.69,4.48,4.48,0,0,0-1.47,3.7,12.76,12.76,0,0,0,.54,3.41,25.17,25.17,0,0,0,4.83,9,17.59,17.59,0,0,0,2.93,2.85,4.91,4.91,0,0,0,2.63,1.15h0a4,4,0,0,0,2.59-.92,2.64,2.64,0,0,0,1.05-1.89,1.3,1.3,0,0,0-.16-0.64,1.21,1.21,0,0,0-.51-0.48l-0.1.2,0.14-.18,0,0-0.1.2,0.14-.18a2.17,2.17,0,0,1-.24-0.26c-0.48-.59-1.38-1.94-2.43-3.59-1.58-2.48-3.51-5.67-5-8.24l-1.92-3.22L80.41,110l-0.19-.32-0.37,0,0.05,0.58-0.5.29s2.39,4.07,4.91,8.21c1.26,2.07,2.55,4.16,3.6,5.77,0.52,0.81,1,1.49,1.36,2,0.19,0.26.35,0.47,0.49,0.64a1.68,1.68,0,0,0,.47.42l0,0v0.07a1.58,1.58,0,0,1-.63,1,2.86,2.86,0,0,1-1.84.65h0a4,4,0,0,1-2-.92,23,23,0,0,1-7.33-11.24A11.62,11.62,0,0,1,78,114.1a3.32,3.32,0,0,1,1-2.79,2.16,2.16,0,0,1,.68-0.37l0.21-.06h0l-0.05-.58-0.5.29Z"/><path class="cls-12" d="M110.8,79.33S87.94,90.7,84.09,92.58s-6.8,14.88-2,25.55,18.06,17.82,22.35,15.86,33.58-18.15,33.58-18.15Z"/><path class="cls-8" d="M110.8,79.33l-0.26-.52-3.63,1.81c-6.61,3.28-20.19,10-23.07,11.44a5.27,5.27,0,0,0-1.95,1.85c-1.7,2.54-2.85,7-2.86,12.05a30.32,30.32,0,0,0,2.57,12.4,31.14,31.14,0,0,0,10.08,11.88,30.25,30.25,0,0,0,5.94,3.41,13.84,13.84,0,0,0,5.12,1.24,4.78,4.78,0,0,0,2-.38c1.11-.51,3.73-1.89,7.09-3.68,10.05-5.39,26.53-14.49,26.53-14.49l0.58-.32L111,78.59l-0.43.22,0.26,0.52-0.47.35,27.26,36.49,0.47-.35-0.28-.51-4.64,2.56c-4.22,2.32-10.65,5.85-16.42,9s-10.91,5.87-12.48,6.59a3.64,3.64,0,0,1-1.51.27,12.75,12.75,0,0,1-4.67-1.15c-5.42-2.27-12.29-7.76-15.41-14.69A29.16,29.16,0,0,1,80.19,106a26.84,26.84,0,0,1,1.3-8.54,12.45,12.45,0,0,1,1.36-2.86,4.16,4.16,0,0,1,1.49-1.46c3.85-1.88,26.71-13.25,26.71-13.25l-0.26-.52-0.47.35Z"/><path class="cls-7" d="M111.36,75.74S105.8,79.12,107,91.65c1.07,11.18,8.44,22.53,17.05,27,7.44,3.87,15.15.17,15.15,0.17Z"/><path class="cls-8" d="M111.36,75.74l-0.3-.5A8.3,8.3,0,0,0,108.6,78c-1.19,2-2.35,5.25-2.35,10.22,0,1.07.05,2.22,0.17,3.45A37.55,37.55,0,0,0,112.2,108a31.8,31.8,0,0,0,11.58,11.2,16.54,16.54,0,0,0,7.7,1.83,20.15,20.15,0,0,0,8-1.65l0.59-.29-28.5-44.12-0.48.29,0.3,0.5-0.49.32,27.84,43.09,0.49-.32-0.25-.52h0a19.17,19.17,0,0,1-7.44,1.53,15.38,15.38,0,0,1-7.16-1.7,30.66,30.66,0,0,1-11.13-10.79,36.4,36.4,0,0,1-5.61-15.76c-0.11-1.2-.17-2.31-0.17-3.34,0-4.79,1.11-7.81,2.19-9.62a9.06,9.06,0,0,1,1.46-1.89,5.26,5.26,0,0,1,.46-0.4l0.12-.09,0,0h0l-0.3-.5-0.49.32Z"/><path class="cls-10" d="M100.32,84.53S87.85,85.78,89.1,102.68s11,24.05,19.74,26.65,12-4.06,12-4.06-12,1.38-20.5-8c-5.81-6.45-6.93-17.09-5.37-23.7C96.71,86.33,100.32,84.53,100.32,84.53Z"/><path class="cls-8" d="M100.32,84.53L100.27,84a13,13,0,0,0-5.95,2.52c-3,2.21-5.9,6.39-5.89,13.89q0,1.13.09,2.36c0.63,8.55,3.44,14.71,7.22,19a27.39,27.39,0,0,0,12.93,8.13,14,14,0,0,0,4,.62,9.84,9.84,0,0,0,6.68-2.48,9.24,9.24,0,0,0,2-2.51l0.48-1-1.07.12h-0.1c-0.21,0-.74.06-1.52,0.06-3.52,0-12-.81-18.38-7.89-4.14-4.57-5.86-11.45-5.86-17.35a25.72,25.72,0,0,1,.62-5.83,16.86,16.86,0,0,1,3.18-7,8.43,8.43,0,0,1,1.34-1.32,4.66,4.66,0,0,1,.38-0.27l0.09-.06h0l0-.05,0,0.05h0l0-.05,0,0.05,2.85-1.42-3.17.32,0.06,0.58L100.07,84c-0.12.05-3.89,2-5.63,9.41a26.86,26.86,0,0,0-.66,6.09c0,6.11,1.75,13.23,6.15,18.13,6.72,7.44,15.57,8.27,19.25,8.27a16.85,16.85,0,0,0,1.75-.08l-0.07-.58-0.52-.26h0a8.31,8.31,0,0,1-1.88,2.25,8.67,8.67,0,0,1-5.79,2.08,12.83,12.83,0,0,1-3.67-.58A26.23,26.23,0,0,1,96.61,121c-3.6-4.13-6.31-10-6.93-18.35q-0.09-1.19-.09-2.27c0-7.2,2.73-10.93,5.42-13a12.54,12.54,0,0,1,3.72-1.91,10.91,10.91,0,0,1,1.22-.31l0.33-.06h0.1l-0.06-.58L100.07,84Z"/><ellipse class="cls-11" cx="92.78" cy="88.95" rx="2.91" ry="2.37" transform="translate(-33.5 112.91) rotate(-54.53)"/><path class="cls-8" d="M94.71,90.33L94.24,90a2.5,2.5,0,0,1-1.95,1.12,1.45,1.45,0,0,1-.86-0.26,1.63,1.63,0,0,1-.63-1.37,2.72,2.72,0,0,1,.53-1.56,2.5,2.5,0,0,1,1.95-1.12,1.45,1.45,0,0,1,.86.26,1.63,1.63,0,0,1,.63,1.37A2.72,2.72,0,0,1,94.24,90l0.47,0.34,0.47,0.34a3.88,3.88,0,0,0,.74-2.23,2.79,2.79,0,0,0-1.12-2.32,2.62,2.62,0,0,0-1.53-.48,3.65,3.65,0,0,0-2.89,1.61,3.88,3.88,0,0,0-.74,2.23,2.79,2.79,0,0,0,1.12,2.32,2.62,2.62,0,0,0,1.53.48,3.65,3.65,0,0,0,2.89-1.61Z"/><ellipse class="cls-11" cx="89.59" cy="98.92" rx="3.08" ry="2.46" transform="translate(-29.83 158.52) rotate(-74.35)"/><path class="cls-8" d="M92,99.59l-0.56-.16a3,3,0,0,1-.88,1.44,1.88,1.88,0,0,1-1.23.51,1.41,1.41,0,0,1-.38-0.05,1.55,1.55,0,0,1-.89-0.7,2.55,2.55,0,0,1-.36-1.35,3.21,3.21,0,0,1,.12-0.87A3,3,0,0,1,88.66,97a1.88,1.88,0,0,1,1.23-.51,1.41,1.41,0,0,1,.38.05,1.55,1.55,0,0,1,.89.7,2.55,2.55,0,0,1,.36,1.35,3.22,3.22,0,0,1-.12.87L92,99.59l0.56,0.16a4.38,4.38,0,0,0,.16-1.18,3.71,3.71,0,0,0-.54-2,2.72,2.72,0,0,0-1.56-1.2,2.57,2.57,0,0,0-.69-0.1,3,3,0,0,0-2,.8,4.16,4.16,0,0,0-1.23,2,4.37,4.37,0,0,0-.16,1.18,3.71,3.71,0,0,0,.54,2,2.72,2.72,0,0,0,1.56,1.2,2.57,2.57,0,0,0,.69.1,3,3,0,0,0,2-.8,4.16,4.16,0,0,0,1.23-2Z"/><ellipse class="cls-11" cx="90.5" cy="110.91" rx="2.46" ry="3.22" transform="translate(-22.27 22.74) rotate(-12.76)"/><path class="cls-8" d="M92.9,110.37l-0.57.13a3.57,3.57,0,0,1,.09.79,2.79,2.79,0,0,1-.4,1.49,1.52,1.52,0,0,1-.94.71l-0.29,0a1.83,1.83,0,0,1-1.25-.58,3.26,3.26,0,0,1-.87-1.61,3.57,3.57,0,0,1-.09-0.79A2.79,2.79,0,0,1,89,109a1.52,1.52,0,0,1,.94-0.71l0.29,0a1.83,1.83,0,0,1,1.25.58,3.26,3.26,0,0,1,.87,1.62l0.57-.13,0.57-.13a4.42,4.42,0,0,0-1.19-2.19,3,3,0,0,0-2.06-.91,2.49,2.49,0,0,0-.55.06A2.69,2.69,0,0,0,88,108.43a4,4,0,0,0-.58,2.11,4.73,4.73,0,0,0,.12,1,4.42,4.42,0,0,0,1.19,2.19,3,3,0,0,0,2.06.91,2.49,2.49,0,0,0,.55-0.06A2.69,2.69,0,0,0,93,113.4a4,4,0,0,0,.58-2.11,4.73,4.73,0,0,0-.12-1Z"/><ellipse class="cls-11" cx="97.27" cy="122.02" rx="2.44" ry="3.24" transform="translate(-47.98 64.98) rotate(-30)"/><path class="cls-8" d="M99.38,120.8l-0.5.29a3.38,3.38,0,0,1,.47,1.67,1.72,1.72,0,0,1-.75,1.56,1.34,1.34,0,0,1-.68.18,2.84,2.84,0,0,1-2.25-1.55,3.38,3.38,0,0,1-.47-1.67,1.72,1.72,0,0,1,.75-1.56,1.34,1.34,0,0,1,.68-0.18,2.84,2.84,0,0,1,2.25,1.55l0.5-.29,0.5-.29a4,4,0,0,0-3.26-2.13,2.51,2.51,0,0,0-1.26.33A2.87,2.87,0,0,0,94,121.27a4.54,4.54,0,0,0,.63,2.25,4,4,0,0,0,3.26,2.13,2.51,2.51,0,0,0,1.26-.33,2.87,2.87,0,0,0,1.33-2.57,4.54,4.54,0,0,0-.63-2.25Z"/><ellipse class="cls-11" cx="109.31" cy="128.57" rx="3.4" ry="2.37"/><path class="cls-8" d="M112.71,128.57h-0.58a1.51,1.51,0,0,1-.75,1.2,3.94,3.94,0,0,1-4.14,0,1.33,1.33,0,0,1,0-2.4,3.94,3.94,0,0,1,4.14,0,1.51,1.51,0,0,1,.75,1.2h1.16a2.66,2.66,0,0,0-1.25-2.15,5.09,5.09,0,0,0-5.47,0,2.48,2.48,0,0,0,0,4.31,5.09,5.09,0,0,0,5.47,0,2.66,2.66,0,0,0,1.25-2.15h-0.58Z"/><ellipse class="cls-11" cx="108.1" cy="87.75" rx="2.19" ry="3.22"/><path class="cls-8" d="M110.29,87.75h-0.58a3.5,3.5,0,0,1-.54,1.95,1.18,1.18,0,0,1-2.14,0,3.77,3.77,0,0,1,0-3.89,1.18,1.18,0,0,1,2.14,0,3.5,3.5,0,0,1,.54,1.95h1.16a4.65,4.65,0,0,0-.74-2.6,2.32,2.32,0,0,0-4.06,0,4.92,4.92,0,0,0,0,5.2,2.32,2.32,0,0,0,4.06,0,4.65,4.65,0,0,0,.74-2.6h-0.58Z"/><ellipse class="cls-11" cx="109.23" cy="98.92" rx="2.4" ry="3.13" transform="translate(-23.54 34.97) rotate(-16.44)"/><path class="cls-8" d="M111.53,98.24l-0.56.16a3.39,3.39,0,0,1,.14,1,2.58,2.58,0,0,1-.34,1.33,1.45,1.45,0,0,1-.83.67,1.3,1.3,0,0,1-.37.05,1.84,1.84,0,0,1-1.2-.52,3.16,3.16,0,0,1-.9-1.47,3.39,3.39,0,0,1-.14-1,2.58,2.58,0,0,1,.34-1.33,1.45,1.45,0,0,1,.83-0.67,1.3,1.3,0,0,1,.37-0.05,1.84,1.84,0,0,1,1.2.52,3.16,3.16,0,0,1,.9,1.47l0.56-.16,0.56-.16a4.32,4.32,0,0,0-1.24-2,3,3,0,0,0-2-.81,2.46,2.46,0,0,0-.7.1,2.62,2.62,0,0,0-1.49,1.19,3.73,3.73,0,0,0-.51,1.93,4.55,4.55,0,0,0,.19,1.29,4.32,4.32,0,0,0,1.24,2,3,3,0,0,0,2,.81,2.46,2.46,0,0,0,.7-0.1,2.62,2.62,0,0,0,1.49-1.19,3.73,3.73,0,0,0,.51-1.93,4.55,4.55,0,0,0-.19-1.29Z"/><ellipse class="cls-11" cx="115.56" cy="109.83" rx="2.6" ry="3.15" transform="translate(-39.43 72.5) rotate(-30)"/><path class="cls-8" d="M117.82,108.53l-0.5.29a3,3,0,0,1,.42,1.5,1.93,1.93,0,0,1-.89,1.73,1.65,1.65,0,0,1-.83.22,2.68,2.68,0,0,1-2.2-1.43,3,3,0,0,1-.42-1.5,1.93,1.93,0,0,1,.89-1.73,1.65,1.65,0,0,1,.83-0.22,2.68,2.68,0,0,1,2.2,1.43l0.5-.29,0.5-.29a3.82,3.82,0,0,0-3.21-2,2.81,2.81,0,0,0-1.41.37,3.09,3.09,0,0,0-1.47,2.74,4.18,4.18,0,0,0,.57,2.08,3.82,3.82,0,0,0,3.21,2,2.81,2.81,0,0,0,1.41-.37,3.09,3.09,0,0,0,1.47-2.74,4.18,4.18,0,0,0-.57-2.08Z"/><ellipse class="cls-11" cx="126.75" cy="118.82" rx="3.31" ry="2.37"/><path class="cls-8" d="M130.05,118.82h-0.58a1.52,1.52,0,0,1-.73,1.2,3.71,3.71,0,0,1-4,0,1.36,1.36,0,0,1,0-2.41,3.71,3.71,0,0,1,4,0,1.52,1.52,0,0,1,.73,1.2h1.16a2.67,2.67,0,0,0-1.21-2.15,4.87,4.87,0,0,0-5.36,0,2.51,2.51,0,0,0,0,4.3,4.87,4.87,0,0,0,5.36,0,2.67,2.67,0,0,0,1.21-2.15h-0.58Z"/><ellipse class="cls-11" cx="109.49" cy="78.61" rx="2.87" ry="2.15" transform="translate(-1.3 155.38) rotate(-70.4)"/><path class="cls-8" d="M111.51,79.33l-0.55-.2a3,3,0,0,1-.85,1.26,1.65,1.65,0,0,1-1,.43,1.06,1.06,0,0,1-.36-0.06,1.19,1.19,0,0,1-.63-0.56,2.21,2.21,0,0,1-.26-1.09,3.11,3.11,0,0,1,.19-1,3,3,0,0,1,.85-1.26,1.65,1.65,0,0,1,1-.43,1.06,1.06,0,0,1,.36.06,1.19,1.19,0,0,1,.63.56,2.21,2.21,0,0,1,.26,1.09,3.11,3.11,0,0,1-.19,1l0.55,0.2,0.55,0.19a4.27,4.27,0,0,0,.25-1.43,3.37,3.37,0,0,0-.41-1.66,2.35,2.35,0,0,0-1.25-1.08,2.22,2.22,0,0,0-.75-0.13,2.8,2.8,0,0,0-1.79.71,4.1,4.1,0,0,0-1.19,1.76,4.27,4.27,0,0,0-.25,1.43,3.37,3.37,0,0,0,.41,1.66,2.35,2.35,0,0,0,1.25,1.08,2.22,2.22,0,0,0,.75.13,2.8,2.8,0,0,0,1.79-.71,4.1,4.1,0,0,0,1.19-1.76Z"/><path class="cls-13" d="M165,73.62c-0.95-2.55-11.39-6-22.13-8.35s-22-.47-22-0.47a13.24,13.24,0,0,0-3.36,1.56c-9.15,6-9.18,22.15-.06,36.16s23.74,20.24,33.09,14.59c4.29-2.6,8.88-14.16,11.68-24.41S166,76.18,165,73.62Z"/><path class="cls-8" d="M165,73.62l0.54-.2a3.18,3.18,0,0,0-.95-1.23,14.6,14.6,0,0,0-3.32-2c-4.27-2-11.2-4-18.28-5.51A57.88,57.88,0,0,0,131,63.53a70.46,70.46,0,0,0-10.13.7h-0.08a13.82,13.82,0,0,0-3.51,1.63c-4.8,3.13-7.15,8.9-7.15,15.59s2.31,14.3,6.92,21.37c6.94,10.65,17,16.91,25.79,16.93a15.44,15.44,0,0,0,8.08-2.16,12,12,0,0,0,3.42-3.64c3.3-4.94,6.4-13.39,8.52-21.12S166,79.77,166,76.32a8.51,8.51,0,0,0-.4-2.9l-0.54.2-0.54.2a7.44,7.44,0,0,1,.33,2.49c0,3.23-1,8.66-3.09,16.23a105,105,0,0,1-5.25,15,40.9,40.9,0,0,1-3.11,5.78,11,11,0,0,1-3.06,3.29,14.27,14.27,0,0,1-7.48,2c-8.21,0-18.05-6-24.82-16.4-4.5-6.9-6.73-14.34-6.73-20.74s2.24-11.77,6.62-14.62a12.66,12.66,0,0,1,3.21-1.49L121,64.8,121,65.38l0.74-.11a73,73,0,0,1,9.2-.58,56.74,56.74,0,0,1,11.8,1.15,118.87,118.87,0,0,1,14.66,4.07,34.59,34.59,0,0,1,5,2.17,9.15,9.15,0,0,1,1.47,1,2.1,2.1,0,0,1,.62.76Z"/><path class="cls-14" d="M129.07,69.51a19.86,19.86,0,0,0-9.12,14c-1.43,9.84,1.61,20.12,10.82,25s13,4.83,17.71,4.65,5.86-.33,5.86-0.33,2.31-4.16,3.82-7.8c1.94-4.66,4.6-14.14,4.6-14.14s-4.19,5-10.62,4.65a27.52,27.52,0,0,1-18.33-8.76c-3.31-3.67-4.83-9.66-4.2-13.06S131.18,68,129.07,69.51Z"/><path class="cls-8" d="M129.07,69.51L128.79,69a18.23,18.23,0,0,0-4.17,3.45,20.45,20.45,0,0,0-5.24,11,32.55,32.55,0,0,0-.34,4.68,26.45,26.45,0,0,0,2.72,12,20.57,20.57,0,0,0,8.74,8.91,46.19,46.19,0,0,0,9.2,3.93,22.55,22.55,0,0,0,6.37.85c0.81,0,1.61,0,2.43-.06,4.75-.18,5.88-0.33,5.92-0.33l0.29,0,0.14-.26s2.32-4.17,3.85-7.86c2-4.73,4.62-14.19,4.63-14.21l0.73-2.61-1.74,2.08,0,0A14.06,14.06,0,0,1,159.41,93a12.33,12.33,0,0,1-6.61,2l-0.63,0a26.94,26.94,0,0,1-17.93-8.57,17.93,17.93,0,0,1-4.19-11,8.65,8.65,0,0,1,.13-1.55c0.17-.9.35-1.73,0.51-2.45a9.92,9.92,0,0,0,.27-1.81,1.48,1.48,0,0,0-.15-0.72,0.88,0.88,0,0,0-.32-0.34,0.89,0.89,0,0,0-.45-0.12,1.49,1.49,0,0,0-.64.17,4.49,4.49,0,0,0-.65.4l0.34,0.47L128.79,69l0.28,0.51L129.41,70a3.4,3.4,0,0,1,.48-0.3l0.12,0h0v0h0V69.35l-0.14.23,0.14,0V69.35l-0.14.23,0.15-.26-0.25.18,0.09,0.08,0.15-.26-0.25.18,0.14-.1-0.16.06,0,0,0.14-.1-0.16.06h0v0.17a9.21,9.21,0,0,1-.24,1.58c-0.15.7-.34,1.55-0.51,2.48a9.8,9.8,0,0,0-.15,1.76,19,19,0,0,0,4.49,11.79,28.09,28.09,0,0,0,18.73,9l0.69,0a13.61,13.61,0,0,0,7.58-2.43,14.57,14.57,0,0,0,2.83-2.44L162.77,91l-0.56-.16s-0.17.59-.45,1.55c-0.84,2.87-2.7,9.08-4.14,12.53-0.75,1.8-1.7,3.74-2.46,5.22-0.38.74-.72,1.37-1,1.82l-0.38.7,0.51,0.28-0.08-.58h0c-0.26,0-1.62.16-5.76,0.32-0.82,0-1.61.06-2.39,0.06a21.37,21.37,0,0,1-6.06-.81,45.07,45.07,0,0,1-9-3.83,19.4,19.4,0,0,1-8.25-8.42,25.29,25.29,0,0,1-2.6-11.51,31.39,31.39,0,0,1,.33-4.51,19.5,19.5,0,0,1,7.67-12.84c0.36-.26.65-0.46,0.86-0.59l0.23-.14,0.06,0h0l0,0,0,0Z"/><path class="cls-13" d="M125.22,76.66C124.07,79.19,123,82.11,123,89c0,5.68,1.85,9.61,3.73,8s4.83-4.78,5.81-3.31c2,3,.94,5.29,1.81,9.35,0.71,3.33,4.36,5.29,6.15,4.23s4.47-5.53,4.92-4.19,0.63,7.87,3.58,6.8,4.29-3.4,5.72-5.72,1.43-3.31,2.41-1.7a5.51,5.51,0,0,1,.78,3.25L158.6,104s-0.74-5-1.9-5.07-2.86,4-4.74,6c-0.87.91-3.76,3.76-3.67,0.89s1.85-7-1.55-7.46-6,5.85-7.55,5.31-2.43-5.34-3.37-8.62c-1.25-4.38-3.63-9.08-6.49-4.7-3.26,5-4.74,1.31-4.2-5.81C125.58,78.69,126.56,73.72,125.22,76.66Z"/><path class="cls-8" d="M125.22,76.66l-0.53-.24a21.57,21.57,0,0,0-1.58,4.65,37.48,37.48,0,0,0-.69,7.88,19.23,19.23,0,0,0,.89,6.18,6.27,6.27,0,0,0,1,1.93,2.06,2.06,0,0,0,1.55.84,1.9,1.9,0,0,0,1.23-.5c0.79-.68,1.74-1.59,2.63-2.33a9.85,9.85,0,0,1,1.26-.9,1.92,1.92,0,0,1,.84-0.31l0.12,0,0.1,0.1a7.42,7.42,0,0,1,1.22,4,31.67,31.67,0,0,0,.5,5.18,6.51,6.51,0,0,0,2.2,3.6,5.45,5.45,0,0,0,3.36,1.38,2.82,2.82,0,0,0,1.45-.37,14.06,14.06,0,0,0,2.73-2.69c0.43-.5.83-1,1.16-1.27a3.16,3.16,0,0,1,.4-0.35l0.1-.06h0l0-.2v0.21h0l0-.2V103l-0.22.25,0.22,0.08V103l-0.22.25,0.17-.19-0.22.13,0.05,0.06,0.17-.19-0.22.13,0.09-.05-0.09,0h0l0.09-.05-0.09,0h0a13.39,13.39,0,0,1,.28,1.51,19.12,19.12,0,0,0,.82,3.56,4.67,4.67,0,0,0,.87,1.52,2.07,2.07,0,0,0,1.54.72,2.4,2.4,0,0,0,.82-0.15,8.77,8.77,0,0,0,3.67-2.56,24.55,24.55,0,0,0,2.35-3.41c0.49-.79.81-1.43,1-1.84a2.72,2.72,0,0,1,.26-0.4l0,0,0,0,0,0h0l0,0,0,0-0.16-.24v0.28l0.16,0-0.16-.24v0l-0.14.24,0.14,0v-0.27l-0.14.24h0a2.52,2.52,0,0,1,.4.55,5,5,0,0,1,.71,2.56c0,0.11,0,.19,0,0.24v0.06h0L156.8,110l2.4-5.9,0-.16s-0.19-1.27-.53-2.56A10.56,10.56,0,0,0,158,99.5a3.08,3.08,0,0,0-.46-0.72,1.22,1.22,0,0,0-.8-0.43h-0.08a1.38,1.38,0,0,0-.8.29,5,5,0,0,0-1,1.14c-0.51.71-1,1.59-1.59,2.46a15.7,15.7,0,0,1-1.69,2.29,14.9,14.9,0,0,1-1.34,1.25,5.48,5.48,0,0,1-.77.53,1.19,1.19,0,0,1-.48.18h0v0.06l0,0h0v0.06l0,0,0,0,0,0h0l0,0,0,0,0-.12a1.75,1.75,0,0,1,0-.43v-0.11c0-1.37.53-3.2,0.54-4.8a3.76,3.76,0,0,0-.52-2.11,2.75,2.75,0,0,0-2.07-1.15l-0.39,0a4.33,4.33,0,0,0-2.54,1,18.54,18.54,0,0,0-2.86,2.92,12.48,12.48,0,0,1-1.07,1.15,1.2,1.2,0,0,1-.56.35h0a1.74,1.74,0,0,1-.73-0.84,17.2,17.2,0,0,1-1.2-3.36c-0.37-1.34-.71-2.79-1.07-4a20.7,20.7,0,0,0-1.81-4.54,6.53,6.53,0,0,0-1.27-1.63,2.56,2.56,0,0,0-1.68-.71,2.45,2.45,0,0,0-1.46.52A5.69,5.69,0,0,0,128.85,90a8.06,8.06,0,0,1-1.32,1.62,1.3,1.3,0,0,1-.76.41,0.41,0.41,0,0,1-.32-0.18,3.6,3.6,0,0,1-.61-1.6,16.78,16.78,0,0,1-.24-3.08c0-.8,0-1.68.11-2.62,0.14-1.82.33-3.55,0.48-5s0.28-2.58.28-3.27a2.46,2.46,0,0,0,0-.52,0.86,0.86,0,0,0-.12-0.3l-0.2-.19a0.64,0.64,0,0,0-.34-0.1,0.7,0.7,0,0,0-.5.22,1.83,1.83,0,0,0-.29.41c-0.09.16-.18,0.35-0.29,0.58l0.53,0.24,0.53,0.24a5.16,5.16,0,0,1,.3-0.59l0-.05h0l-0.22-.2L126,76.3l0.06,0-0.22-.2L126,76.3l-0.26-.42v0.49A0.49,0.49,0,0,0,126,76.3l-0.26-.42v0l-0.28.44,0.28,0.08V75.85l-0.28.44,0.24-.39-0.43.18a0.46,0.46,0,0,0,.18.21l0.24-.39-0.43.18,0.16-.07-0.17,0v0l0.16-.07-0.17,0a1.59,1.59,0,0,1,0,.26c0,0.56-.12,1.71-0.28,3.14s-0.35,3.19-.49,5c-0.07,1-.11,1.87-0.11,2.7a14.69,14.69,0,0,0,.47,4.15,3.57,3.57,0,0,0,.66,1.3,1.58,1.58,0,0,0,1.2.58,2.38,2.38,0,0,0,1.53-.7,9.15,9.15,0,0,0,1.52-1.86,4.57,4.57,0,0,1,1-1.19,1.29,1.29,0,0,1,.77-0.3,1.41,1.41,0,0,1,.91.42,7.12,7.12,0,0,1,1.51,2.27,22.9,22.9,0,0,1,1.21,3.34c0.46,1.62.92,3.65,1.46,5.36a13.24,13.24,0,0,0,.91,2.27,2.74,2.74,0,0,0,1.36,1.38h0a1.18,1.18,0,0,0,.39.06,1.69,1.69,0,0,0,.93-0.33,7.94,7.94,0,0,0,1.37-1.34,28.43,28.43,0,0,1,2.29-2.49,3.85,3.85,0,0,1,2.44-1.2l0.25,0a1.58,1.58,0,0,1,1.25.64,2.65,2.65,0,0,1,.33,1.47c0,1.36-.48,3.18-0.53,4.76v0.14a2.14,2.14,0,0,0,.28,1.18,1.13,1.13,0,0,0,1,.52,2.22,2.22,0,0,0,1-.32,11.65,11.65,0,0,0,2.39-2,26,26,0,0,0,2.68-3.82,14.5,14.5,0,0,1,1.08-1.54,2.4,2.4,0,0,1,.4-0.39l0.11-.06h0v0h0v0h0v0h0V99.36l0,0.13h0V99.36l0,0.13v0l0,0h0v0l0,0a0.73,0.73,0,0,1,.18.21,5,5,0,0,1,.49,1.11,19.24,19.24,0,0,1,.55,2.16c0.06,0.32.11,0.6,0.15,0.79l0,0.31,0.58-.09-0.54-.22-0.68,1.66,0.54,0.22,0.58,0.07a3.93,3.93,0,0,0,0-.45,6.17,6.17,0,0,0-.88-3.17,4.36,4.36,0,0,0-.5-0.69,1.36,1.36,0,0,0-.3-0.25,0.89,0.89,0,0,0-.45-0.13,0.86,0.86,0,0,0-.45.13,1.5,1.5,0,0,0-.44.44c-0.33.49-.66,1.21-1.27,2.2a23.59,23.59,0,0,1-2.23,3.25,7.6,7.6,0,0,1-3.19,2.23,1.24,1.24,0,0,1-.42.08,0.79,0.79,0,0,1-.46-0.15,2.5,2.5,0,0,1-.76-1.1,13.74,13.74,0,0,1-.74-2.89c-0.08-.5-0.15-1-0.22-1.37a7.33,7.33,0,0,0-.22-1,1,1,0,0,0-.28-0.44,0.83,0.83,0,0,0-.55-0.2,1.27,1.27,0,0,0-.7.25,6.31,6.31,0,0,0-1,.93c-0.53.57-1.11,1.28-1.68,1.91a8,8,0,0,1-1.55,1.42,1.66,1.66,0,0,1-.86.21,4.33,4.33,0,0,1-2.61-1.1,5.35,5.35,0,0,1-1.81-3,30.84,30.84,0,0,1-.48-5A8.6,8.6,0,0,0,133,93.33a1.38,1.38,0,0,0-1.19-.64,3,3,0,0,0-1.42.47,14.31,14.31,0,0,0-2.12,1.62c-0.7.62-1.38,1.26-1.94,1.74a0.75,0.75,0,0,1-.48.22,0.93,0.93,0,0,1-.66-0.42,7,7,0,0,1-1.15-2.74,20.43,20.43,0,0,1-.49-4.63,36.34,36.34,0,0,1,.66-7.64,20.4,20.4,0,0,1,1.5-4.41Z"/></svg>