<svg id="Layer_1" data-name="Layer 1" xmlns="http://www.w3.org/2000/svg" xmlns:xlink="http://www.w3.org/1999/xlink" viewBox="0 0 214.05 207.84"><defs><style>.cls-1{fill:url(#linear-gradient);}.cls-2,.cls-3,.cls-4,.cls-7{fill:#000100;}.cls-2{fill-opacity:0.26;}.cls-3{fill-opacity:0.28;}.cls-4{fill-opacity:0.41;}.cls-5{fill:url(#linear-gradient-2);}.cls-6{fill:url(#linear-gradient-3);}.cls-7{fill-opacity:0.29;}.cls-8{fill:url(#linear-gradient-4);}.cls-9{fill:url(#linear-gradient-5);}.cls-10{fill:url(#linear-gradient-6);}.cls-11{fill:url(#linear-gradient-7);}.cls-12{fill:#79240f;}.cls-13{fill:url(#linear-gradient-8);}.cls-14{fill:url(#linear-gradient-9);}.cls-15{fill:url(#linear-gradient-10);}.cls-16{fill:url(#linear-gradient-11);}.cls-17{fill:url(#linear-gradient-12);}.cls-18{fill:url(#linear-gradient-13);}.cls-19{fill:url(#linear-gradient-14);}.cls-20{fill:url(#linear-gradient-15);}.cls-21{fill:url(#linear-gradient-16);}.cls-22{fill:url(#linear-gradient-17);}.cls-23{fill:url(#linear-gradient-18);}.cls-24{fill:url(#linear-gradient-19);}</style><linearGradient id="linear-gradient" x1="38.91" y1="104.98" x2="184.62" y2="104.98" gradientUnits="userSpaceOnUse"><stop offset="0" stop-color="#5c789f"/><stop offset="0.4" stop-color="#2d3b50"/><stop offset="1" stop-color="#0d0e14"/></linearGradient><linearGradient id="linear-gradient-2" x1="-2537.32" y1="200.53" x2="-2533.77" y2="199.06" gradientTransform="translate(133564.31 -10412.16) scale(52.63)" gradientUnits="userSpaceOnUse"><stop offset="0" stop-color="#502a13"/><stop offset="0.35" stop-color="#d08f2a"/><stop offset="0.42" stop-color="#e1d02e"/><stop offset="0.5" stop-color="#f6e580"/><stop offset="0.54" stop-color="#f6e580"/><stop offset="0.6" stop-color="#e1d02e"/><stop offset="0.69" stop-color="#d08f2a"/><stop offset="1" stop-color="#462b16"/></linearGradient><linearGradient id="linear-gradient-3" x1="-2534.18" y1="202.02" x2="-2536.01" y2="199.42" gradientTransform="translate(133534.46 -10465.31) scale(52.63)" gradientUnits="userSpaceOnUse"><stop offset="0" stop-color="#ffe12b"/><stop offset="0.14" stop-color="#fff7c7" stop-opacity="0"/><stop offset="0.82" stop-color="#fff7c7" stop-opacity="0"/><stop offset="1" stop-color="#ffe12b"/></linearGradient><linearGradient id="linear-gradient-4" x1="26.8" y1="106.65" x2="131.02" y2="106.65" gradientUnits="userSpaceOnUse"><stop offset="0" stop-color="#da9512"/><stop offset="0.23" stop-color="#efd11a"/><stop offset="0.75" stop-color="#efd11a"/><stop offset="0.91" stop-color="#efd11a"/><stop offset="1" stop-color="#d29111"/></linearGradient><linearGradient id="linear-gradient-5" x1="126.29" y1="102.89" x2="199.69" y2="102.89" gradientUnits="userSpaceOnUse"><stop offset="0" stop-color="#c63317"/><stop offset="0.49" stop-color="#da9004"/><stop offset="0.8" stop-color="#da9004"/><stop offset="1" stop-color="#c43e17"/></linearGradient><linearGradient id="linear-gradient-6" x1="26.8" y1="62.81" x2="57.25" y2="62.81" gradientUnits="userSpaceOnUse"><stop offset="0" stop-color="#ffd512"/><stop offset="1" stop-color="#fef9de"/></linearGradient><linearGradient id="linear-gradient-7" x1="-473.91" y1="62.91" x2="-442.66" y2="62.91" gradientTransform="matrix(-1, 0, 0, 1, -342.89, 0)" gradientUnits="userSpaceOnUse"><stop offset="0" stop-color="#fef9de"/><stop offset="1" stop-color="#ffd512"/></linearGradient><linearGradient id="linear-gradient-8" x1="69.46" y1="125.61" x2="106.59" y2="88.47" gradientUnits="userSpaceOnUse"><stop offset="0" stop-color="#c27014"/><stop offset="0.59" stop-color="#cb860e"/><stop offset="0.81" stop-color="#bd3718"/><stop offset="1" stop-color="#bd3718"/></linearGradient><linearGradient id="linear-gradient-9" x1="62.1" y1="139.82" x2="94.65" y2="107.28" gradientUnits="userSpaceOnUse"><stop offset="0" stop-color="#cb7612"/><stop offset="1" stop-color="#ad3117"/></linearGradient><linearGradient id="linear-gradient-10" x1="38.16" y1="125.4" x2="81.04" y2="82.52" gradientUnits="userSpaceOnUse"><stop offset="0" stop-color="#c63317"/><stop offset="0.31" stop-color="#da9004"/><stop offset="0.74" stop-color="#da9004"/><stop offset="1" stop-color="#c43e17"/></linearGradient><linearGradient id="linear-gradient-11" x1="78.46" y1="124.87" x2="125.4" y2="77.93" gradientUnits="userSpaceOnUse"><stop offset="0" stop-color="#efd802"/><stop offset="0.69" stop-color="#efd802"/><stop offset="1" stop-color="#cd7d11"/></linearGradient><linearGradient id="linear-gradient-12" x1="89.22" y1="135.63" x2="148.57" y2="76.28" gradientUnits="userSpaceOnUse"><stop offset="0" stop-color="#c35717"/><stop offset="0.36" stop-color="#c67313"/><stop offset="0.71" stop-color="#c67313"/><stop offset="1" stop-color="#a62316"/></linearGradient><linearGradient id="linear-gradient-13" x1="51.01" y1="128.51" x2="98.82" y2="80.7" gradientUnits="userSpaceOnUse"><stop offset="0" stop-color="#ffee5b"/><stop offset="0.1" stop-color="#feed56"/><stop offset="0.22" stop-color="#fbe948"/><stop offset="0.34" stop-color="#f6e332"/><stop offset="0.47" stop-color="#f0da12"/><stop offset="0.52" stop-color="#ecd501"/><stop offset="1" stop-color="#ecd501"/></linearGradient><linearGradient id="linear-gradient-14" x1="156.83" y1="103.1" x2="176.41" y2="83.52" xlink:href="#linear-gradient-6"/><linearGradient id="linear-gradient-15" x1="166.32" y1="79.4" x2="177.35" y2="68.37" xlink:href="#linear-gradient-6"/><linearGradient id="linear-gradient-16" x1="131.02" y1="77.08" x2="156.57" y2="51.54" xlink:href="#linear-gradient-6"/><linearGradient id="linear-gradient-17" x1="112.83" y1="136.32" x2="168.04" y2="81.12" xlink:href="#linear-gradient-11"/><linearGradient id="linear-gradient-18" x1="162.92" y1="78.18" x2="167" y2="74.1" gradientUnits="userSpaceOnUse"><stop offset="0" stop-color="#ad3117"/><stop offset="1" stop-color="#cb7612"/></linearGradient><linearGradient id="linear-gradient-19" x1="158.12" y1="120.39" x2="196.06" y2="82.46" xlink:href="#linear-gradient-9"/></defs><title>WoWLogos</title><path class="cls-1" d="M178.9,133.34A73,73,0,1,1,184.62,105,73.15,73.15,0,0,1,178.9,133.34Z"/><path class="cls-2" d="M111.77,22.18a82.42,82.42,0,1,0,82.31,82.42A82.39,82.39,0,0,0,111.77,22.18Zm-0.34,14.21A67.71,67.71,0,1,1,43.88,104a67.49,67.49,0,0,1,67.54-67.65h0Z"/><path class="cls-3" d="M111.77,20.94a83.67,83.67,0,1,0,83.55,83.67A83.65,83.65,0,0,0,111.77,20.94Zm-0.34,16.69A66.47,66.47,0,1,1,45.13,104,66.24,66.24,0,0,1,111.43,37.63Z"/><path class="cls-4" d="M111.77,18.91a85.7,85.7,0,1,0,85.58,85.7A85.71,85.71,0,0,0,111.77,18.91Zm-0.34,20.75A64.44,64.44,0,1,1,47.16,104,64.17,64.17,0,0,1,111.43,39.66Z"/><path id="x" class="cls-5" d="M111.77,23.42a81.18,81.18,0,1,0,81.07,81.18,81.13,81.13,0,0,0-81.07-81.18h0Zm-0.34,11.73A69,69,0,1,1,42.65,104,68.76,68.76,0,0,1,111.43,35.15Z"/><path class="cls-6" d="M109.72,23.95a77,77,0,1,0,76.9,77A76.9,76.9,0,0,0,109.72,23.95Zm-0.34,3.38a73,73,0,0,1,72.84,73.07c0,40.33-32.63,73.18-72.84,73.18a73.12,73.12,0,0,1,0-146.24h0Z"/><path class="cls-7" d="M129.37,136.84c0,8.14-1.83,11.47-4,14.36-3.29,4.44-1.55,9.78,2.81,9.88s30.81,0.08,37.3-.11,5.82-5.14,3.79-6.4-6.69-5.61-6.78-9.2,0-23.35,0-23.35,35.94-27.42,39.63-30.33,4.17-7.65.58-10.37-38.17-31-41.08-33.43-6.6-1.53-8.72-.1S136.47,60,136.47,60a5.33,5.33,0,0,0-4.82-7.65H98a5.33,5.33,0,0,0-5.3,6.24l6.06,8L94.25,98.23l-9.3-36a5.32,5.32,0,0,0-10.36,0L65.29,99.3l-5.09-33,1.3-7.89a5.32,5.32,0,0,0-5.3-6.12H25.46a5.1,5.1,0,0,0-.59,0A5.33,5.33,0,0,0,20.29,59l7.24,8.83V68.1l16.61,78.5-1.53,7.89a5.32,5.32,0,0,0,5.18,6.35H76.12a5.33,5.33,0,0,0,4.35-2.24,5.33,5.33,0,0,0,4.35,2.24L114.14,161a5.33,5.33,0,0,0,4.94-7.18l-2.94-8.12,13-63.6S129.37,128.7,129.37,136.84Zm-48.66,6.83,1.18,3.53-1.3,4-0.82-4Z"/><path class="cls-7" d="M200.87,81.47c-3.46-2.62-36.89-30-39.7-32.3s-5.86-1.52-7.91-.14S133.8,62.91,133.8,62.91l1.37-3.64a3.91,3.91,0,0,0-3.53-5.53H98a3.91,3.91,0,0,0-3.88,4.59l6.06,8.24-5.66,38.37L83.54,62.58a3.91,3.91,0,0,0-7.53,0L65.18,105.65,58.79,66.46l1.3-8.24a3.9,3.9,0,0,0-3.89-4.47H25.46a3.77,3.77,0,0,0-.82,0,3.91,3.91,0,0,0-3,4.63q0,0.16.08,0.32l7.24,8.83v0.23l16.61,78.62-1.65,8.47a3.91,3.91,0,0,0,3.88,4.59H76.12A3.92,3.92,0,0,0,80,154.73l-1.65-8,2.24-8.24,2.71,8.59-2.24,7.3a3.92,3.92,0,0,0,3.77,5.06l29.31,0.12a3.92,3.92,0,0,0,3.65-5.18l-3.18-8.59S124.66,97.3,128.14,80c0.39-1.94,2.06-1.42,2.07.08,0,5.43.51,47.66,0.51,55.52s-0.67,12.29-3.12,14.75c-4.23,4.23-2.94,9.4,1.27,9.49s29.78,0.21,36,0c4.66-.19,4.54-3.94,2.54-5-2.62-1.4-6.51-6.26-6.6-9.73s0-23.73,0-23.73,35.9-27.66,39.45-30.47S204.33,84.09,200.87,81.47Z"/><path class="cls-7" d="M199.86,82.56C196.49,80,163,52.75,160.28,50.49s-5.24-.78-7.23.57c-1.7,1.15-18.24,13.09-23.12,16.61l4.19-8.86a2.75,2.75,0,0,0-2.47-3.88H98a2.75,2.75,0,0,0-2.71,3.17l6.06,8.47-6.49,43.79L82.48,62.81a2.75,2.75,0,0,0-5.42,0l-12,47.55L57.61,66.22l1.3-8.12a2.74,2.74,0,0,0-2.71-3.17H25.46a2.79,2.79,0,0,0-.59,0,2.73,2.73,0,0,0-2,3.28l0,0.13,7.24,8.94H30l16.73,79.33-1.65,8.47a2.75,2.75,0,0,0,2.71,3.18H76.12a2.75,2.75,0,0,0,2.71-3.3l-1.65-8,3.3-12.59,4.12,12.71-2.35,7.65a2.77,2.77,0,0,0,.42,2.41,2.73,2.73,0,0,0,2.17,1.12l29.31,0.12a2.75,2.75,0,0,0,2.59-3.65l-3.3-8.94,13.71-66.91a2,2,0,0,1,2.18-1.67,2.35,2.35,0,0,1,2.08,2.33c0,12.94.23,47.51,0.23,55.16s-0.42,13.35-2.75,15.81c-3.74,4-3.15,8.09.94,8.18s29,0.37,35.06,0c3.87-.26,3-2.78.72-4.08-2.42-1.4-5.68-5.69-5.77-9.06s-0.17-25.62-.17-25.62S195.53,93.11,199,90.38,203.23,85.11,199.86,82.56Z"/><path class="cls-7" d="M198.51,83.44c-3.23-2.45-36-29.12-38.59-31.29s-4.17-1.37-6.79.48C151.48,53.8,132.26,67,127.61,70.25l0.27-1.32,5.06-10.71a1.5,1.5,0,0,0-1.29-2.12H98a1.5,1.5,0,0,0-1.53,1.77l6.18,8.71L95,116.36,81.18,63.16a1.5,1.5,0,0,0-2.82,0L65.06,116,56.32,66.58l1.41-8.71A1.62,1.62,0,0,0,56.2,56.1H25.35a1.51,1.51,0,0,0-1.08.64A1.48,1.48,0,0,0,24.05,58L31.29,67,48,146.61l-1.65,8.71a1.5,1.5,0,0,0,1.2,1.74l0.21,0H76.12a1.51,1.51,0,0,0,1.41-1.88l-1.65-8.36,4.47-17.06,5.53,17.31-2.47,8a1.5,1.5,0,0,0,1.41,2l29.31,0.12a1.5,1.5,0,0,0,1.41-2L112.14,146l14.15-69.31a3.65,3.65,0,0,1,3.44-1.11,3.17,3.17,0,0,1,3.07,3c0,12.42.22,47.52,0.22,54.86s-0.4,15.16-2.63,17.52c-3.59,3.8-3.3,6.52.63,6.61s27.1,0.32,32.94-.07c3.72-.25,1.72-2-0.43-3.2-2.33-1.34-4.86-6.58-4.94-9.81s-0.22-25.44-.22-25.44,35.66-26.37,39-29S201.75,85.88,198.51,83.44Z"/><path class="cls-8" d="M26.8,58.73s5.92,4.14,7.49,9.46C35.44,72,50,132.7,50.85,138.12s1.94,9.59-.52,12.45a25.73,25.73,0,0,1-4.3,4H76.85a18.58,18.58,0,0,1-1.76-10.65c0.89-5.81,5.2-26.21,5.2-26.21s4.73,23,4.93,27.31A37.92,37.92,0,0,1,84,154.57h29.45s-4.14-5.71-3.64-11.33,10.64-65.7,12.21-70.42a41.82,41.82,0,0,1,6.7-11.72A28.77,28.77,0,0,1,131,58.73H99.5s4.53,3.15,3.35,9.85-8.73,50.87-8.73,50.87L79.74,61.83,66.11,120.59S56.36,76.16,55.87,70.65a38.07,38.07,0,0,1,1.38-11.92H26.8Z"/><path class="cls-9" d="M156.88,146.81c-1.17-3.51-.53-28.18-0.53-28.18l43.34-32.54L156.25,51.22l-30,21.14,12,5.95s0.42,56.61,0,61.6-1.49,8-3.29,10.3a43.8,43.8,0,0,1-3.93,4.35h31.44S158.05,150.32,156.88,146.81Zm-0.64-75.31,18.38,14.37L156.25,99V71.51Z"/><polygon class="cls-10" points="26.8 58.73 42.87 66.9 57.25 58.73 26.8 58.73"/><polygon class="cls-11" points="131.02 58.73 114.56 67.09 99.77 58.73 131.02 58.73"/><polygon class="cls-12" points="46.02 154.57 60.19 147.42 69.92 147.42 76.85 154.57 46.02 154.57"/><polygon class="cls-12" points="113.49 154.57 101.01 147.42 91.28 147.42 84.04 154.57 113.49 154.57"/><polygon class="cls-13" points="79.9 61.78 79.9 92.53 91.28 147.42 101.01 147.42 79.9 61.78"/><path class="cls-14" d="M79.9,92.53l0.39,25.17s-3.5,17.71-4.7,23.4c-1.09,5.16-.68,7.55-0.07,9.89a20.1,20.1,0,0,0,1.33,3.57l-6.92-7.14Z"/><path class="cls-15" d="M66.11,120.59l3.81,26.84H60.19L42.87,66.9l14.38-8.17a36.75,36.75,0,0,0-1.43,8.69c-0.09,4.31.22,5.34,1.93,13.73S66.11,120.59,66.11,120.59Z"/><path class="cls-16" d="M101,147.42l-6.9-28s8.05-46.73,8.65-50.36-0.09-6.7-1.33-8.23a18.6,18.6,0,0,0-1.93-2.12l15.05,8.36Z"/><path class="cls-17" d="M101,147.42l13.54-80.33L131,58.73s-4.09,3-7.74,11.09c-1.9,4.21-2.37,7.9-3.34,13.12s-8.9,52.26-9.76,57.68,0.25,8.79,1.78,11.36l1.53,2.58Z"/><polygon class="cls-18" points="69.92 147.42 66.11 120.58 79.9 61.78 79.9 92.53 69.92 147.42"/><polygon class="cls-19" points="174.63 85.88 178.77 85.88 156.25 102.52 156.25 98.97 174.63 85.88"/><polygon class="cls-12" points="131.07 154.57 152.24 147.42 162.51 154.57 131.07 154.57"/><polygon class="cls-20" points="155.13 55.16 152.24 65.32 178.77 85.88 195.06 86.09 155.13 55.16"/><polygon class="cls-21" points="156.25 51.22 152.24 65.32 126.29 72.36 156.25 51.22"/><path class="cls-22" d="M126.29,72.36l12,5.95s0.5,54.58.09,59.45-0.53,9.37-3.74,12.91-3.57,3.9-3.57,3.9l21.16-7.14V65.32Z"/><polygon class="cls-23" points="152.24 65.32 156.25 71.51 174.63 85.88 178.77 85.88 152.24 65.32"/><polygon class="cls-24" points="156.35 118.63 156.35 114.89 195.06 86.09 199.69 86.09 156.35 118.63"/></svg>