<?xml version="1.0" encoding="utf-8"?>
<!-- Generator: Adobe Illustrator 19.2.1, SVG Export Plug-In . SVG Version: 6.00 Build 0)  -->
<svg version="1.1" id="Layer_1" xmlns="http://www.w3.org/2000/svg" xmlns:xlink="http://www.w3.org/1999/xlink" x="0px" y="0px"
	 viewBox="0 0 797.1 249.4" style="enable-background:new 0 0 797.1 249.4;" xml:space="preserve">
<style type="text/css">
	.st0{fill:none;stroke:#000000;stroke-miterlimit:10;}
	.st1{fill:#FFFFFF;}
</style>
<rect y="0" width="201.6" height="249.4"/>
<path d="M399.6,249.4h-31.1l0-128.8l-68,116.3l-68.2-116.4v128.9h-31.1L201.5,0l99,170.5L399.5,0L399.6,249.4z"/>
<polygon class="st0" points="399.5,0.5 201.6,0.5 300.6,171.9 "/>
<polygon points="365.2,20.7 236.8,20.7 301,132 "/>
<polygon class="st0" points="599,249 796.9,249 698,77.6 "/>
<polygon points="633.3,228.8 761.8,228.8 697.6,117.5 "/>
<path d="M598.8,0l31.1,0l0,128.8l68-116.3l68.2,116.4V0l31.1,0l0,249.4L697.9,78.8l-99,170.5L598.8,0z"/>
<path class="st1" d="M115.8,218.5c-51.8,0-82.3-42-82.3-93.8S64,30.9,115.8,30.9c27.9,0,41.5,12.2,58.7,31.5l27.2-15.7
	C178.8,18.3,155.1,0,115.8,0C46.9,0,2.5,55.8,2.5,124.7s44.4,124.7,113.3,124.7c39.4,0,63-18.3,85.9-46.8L174.4,187
	C157.2,206.3,143.6,218.5,115.8,218.5z"/>
<polygon points="428.1,249.4 428,71.2 599,249.4 "/>
<polygon points="570.1,0 570.1,177.9 399.6,0 "/>
<path class="st1" d="M598.9,249.4L428.3,71.2v178.2h-28.7L399.5,0l170.6,177.9V0h28.7L598.9,249.4z"/>
</svg>
