<?xml version="1.0" encoding="UTF-8" standalone="no"?>
<!DOCTYPE svg PUBLIC "-//W3C//DTD SVG 20010904//EN" "http://www.w3.org/TR/2001/REC-SVG-20010904/DTD/svg10.dtd">
<svg version="1.0" xmlns="http://www.w3.org/2000/svg" width="512.000000pt" height="512.000000pt" viewBox="0 0 512.000000 512.000000" preserveAspectRatio="xMidYMid meet">

<g transform="translate(0.000000,512.000000) scale(0.100000,-0.100000)" fill="#000000" stroke="none">
<path d="M2325 5094 c-16 -2 -80 -11 -142 -20 -403 -55 -803 -222 -1153 -482 -150 -111 -391 -352 -502 -502 -258 -348 -416 -724 -485 -1152 -25 -161 -25 -595 0 -756 89 -555 327 -1023 721 -1418 394 -394 863 -632 1418 -721 88 -14 171 -18 378 -18 207 0 290 4 378 18 555 89 1024 327 1418 721 394 395 632 863 721 1418 25 161 25 595 0 756 -89 555 -327 1024 -721 1418 -393 392 -860 630 -1411 720 -95 15 -545 28 -620 18z m-24 -1006 c170 -159 184 -169 228 -175 78 -11 107 3 200 90 194 185 197 187 236 187 64 0 84 -32 139 -220 50 -171 74 -218 126 -245 44 -23 94 -18 276 25 168 41 193 42 228 11 37 -32 36 -53 -5 -227 -42 -179 -47 -239 -25 -282 29 -55 59 -71 240 -126 97 -30 186 -62 196 -71 26 -23 35 -77 19 -106 -6 -13 -64 -78 -127 -143 -110 -115 -151 -175 -152 -224 0 -47 33 -97 148 -221 134 -143 146 -160 137 -200 -11 -50 -43 -67 -220 -120 -93 -28 -183 -61 -199 -72 l-29 -22 -51 22 c-28 11 -61 21 -74 21 -12 0 -41 4 -64 10 -87 19 -215 39 -291 46 -53 4 -77 10 -74 17 2 7 19 150 38 318 32 299 33 307 16 351 -20 52 -52 85 -347 353 -254 231 -251 229 -310 229 -60 0 -50 7 -370 -283 -271 -246 -300 -280 -300 -358 0 -40 54 -543 64 -604 l5 -26 -102 -7 c-56 -4 -118 -11 -137 -16 -19 -5 -69 -14 -110 -20 -41 -6 -105 -21 -141 -32 l-66 -21 -29 21 c-16 12 -105 45 -199 73 -176 53 -209 71 -220 120 -9 40 4 59 137 200 114 122 148 173 148 221 -1 49 -42 109 -152 224 -63 65 -121 130 -127 143 -16 29 -7 83 19 106 10 9 99 42 197 72 274 83 286 104 217 390 -19 81 -36 163 -36 181 0 38 30 77 67 86 12 3 98 -12 191 -34 185 -44 230 -48 274 -25 52 27 76 74 126 245 55 187 76 220 139 220 31 0 48 -12 146 -102z m383 -1338 c139 -159 142 -163 139 -290 -2 -58 -21 -413 -43 -790 -36 -604 -43 -688 -59 -710 -31 -44 -57 -51 -173 -48 -96 3 -109 5 -132 27 -14 13 -27 35 -30 50 -4 14 -26 366 -51 781 -33 555 -42 765 -35 791 12 43 24 59 143 197 119 136 116 136 241 -8z"/>
</g>
</svg>