<svg id="Layer_1" data-name="Layer 1" xmlns="http://www.w3.org/2000/svg" xmlns:xlink="http://www.w3.org/1999/xlink" viewBox="0 0 214.05 207.84"><defs><style>.cls-1{fill:url(#linear-gradient);}.cls-2,.cls-3,.cls-4{fill:#000100;}.cls-2{fill-opacity:0.26;}.cls-3{fill-opacity:0.28;}.cls-4{fill-opacity:0.41;}.cls-5{fill:url(#linear-gradient-2);}.cls-6{fill:url(#linear-gradient-3);}.cls-7{fill:url(#radial-gradient);}.cls-8{fill:#fff;}.cls-9{fill:#c6c6c6;}</style><linearGradient id="linear-gradient" x1="37.88" y1="105.32" x2="183.59" y2="105.32" gradientUnits="userSpaceOnUse"><stop offset="0" stop-color="#5c789f"/><stop offset="0.4" stop-color="#2d3b50"/><stop offset="1" stop-color="#0d0e14"/></linearGradient><linearGradient id="linear-gradient-2" x1="-162.73" y1="91.3" x2="24" y2="13.57" gradientTransform="translate(174.04 40.98) rotate(-8.71)" gradientUnits="userSpaceOnUse"><stop offset="0" stop-color="#502a13"/><stop offset="0.35" stop-color="#d08f2a"/><stop offset="0.42" stop-color="#e1d02e"/><stop offset="0.5" stop-color="#f6e580"/><stop offset="0.54" stop-color="#f6e580"/><stop offset="0.6" stop-color="#e1d02e"/><stop offset="0.69" stop-color="#d08f2a"/><stop offset="1" stop-color="#462b16"/></linearGradient><linearGradient id="linear-gradient-3" x1="-27.41" y1="116.46" x2="-123.93" y2="-20.33" gradientTransform="translate(174.04 40.98) rotate(-8.71)" gradientUnits="userSpaceOnUse"><stop offset="0" stop-color="#ffe12b"/><stop offset="0.14" stop-color="#fff7c7" stop-opacity="0"/><stop offset="0.82" stop-color="#fff7c7" stop-opacity="0"/><stop offset="1" stop-color="#ffe12b"/></linearGradient><radialGradient id="radial-gradient" cx="110.74" cy="96.38" r="56.86" gradientUnits="userSpaceOnUse"><stop offset="0" stop-color="#c43e17"/><stop offset="0.28" stop-color="#da9004"/><stop offset="0.45" stop-color="#eaa100"/><stop offset="0.66" stop-color="#da9004"/><stop offset="1" stop-color="#c63317"/></radialGradient></defs><title>WoWLogos</title><path class="cls-1" d="M177.87,133.68a73,73,0,1,1,5.72-28.36A73.15,73.15,0,0,1,177.87,133.68Z"/><path class="cls-2" d="M98.26,23.47a82.42,82.42,0,1,0,93.84,69A82.39,82.39,0,0,0,98.26,23.47Zm1.82,14.09a67.71,67.71,0,1,1-56.52,77.1,67.49,67.49,0,0,1,56.52-77.1h0Z"/><path class="cls-3" d="M98.07,22.24A83.67,83.67,0,1,0,193.33,92.3,83.65,83.65,0,0,0,98.07,22.24Zm2.19,16.55a66.47,66.47,0,1,1-55.48,75.69A66.24,66.24,0,0,1,100.26,38.79Z"/><path class="cls-4" d="M97.76,20.24A85.7,85.7,0,1,0,195.33,92,85.71,85.71,0,0,0,97.76,20.24Zm2.81,20.56a64.44,64.44,0,1,1-53.78,73.37A64.17,64.17,0,0,1,100.57,40.8Z"/><path id="x" class="cls-5" d="M98.45,24.69a81.18,81.18,0,1,0,92.43,68,81.13,81.13,0,0,0-92.43-68h0Zm1.44,11.64a69,69,0,1,1-57.56,78.51A68.76,68.76,0,0,1,99.89,36.34Z"/><path class="cls-6" d="M96.5,25.53A77,77,0,1,0,184.18,90,76.9,76.9,0,0,0,96.5,25.53Zm0.18,3.39a73,73,0,0,1,83.07,61.2c6.11,39.87-21.18,77.28-60.92,83.36A73.12,73.12,0,0,1,96.68,28.92h0Z"/><path class="cls-7" d="M91,143.06c-0.58-4.47-4.67-38.38-4.47-41s-1-3.72,2.23-6.94,16.25-14.79,19.09-17,4.26-1.22,6.9,1,18.43,15,19.67,16.85,0.18,6.09,0,9.95-3.63,36.35-3.83,38.38,0.76,3.45,3.83,3.45,13.83,0.61,17.29,1.42,4.87-1.83,4.06-5.48-2.64-9.95-2.64-12.18a5,5,0,0,1,4.06-5.08c2.84-.61,7.31-2.64,10.76-3.45s4.67-4.06,1.42-7.51-6.09-6.09-7.72-8.53-2.23-4.06.41-6.9,5.08-5.89,7.72-8.33,1.42-5.69-3.45-7.11-7.31-2-10.15-3-3.66-1.69-3.45-4.7a75.23,75.23,0,0,1,2.44-12.56c1.22-4.47-.2-5.89-5.28-4.87s-10.15,3-13.81,2.23S131,51.08,129.78,46.81s-4.8-4.67-9.2,0-6.64,7.92-10.09,7.92-7.11-5.28-11.37-9.14S92.62,44,91.2,49.45s-1.75,10.36-4.73,12.18S74.35,60,70.29,59,64.81,60.21,66,64.48s3.25,10.56,3,13.2-1,3.25-3.47,4.26-10.42,2.87-13.06,4-2.49,3.57.48,6.74c3.45,3.68,8.32,8.1,8.52,10.53s-1.21,5.1-5.68,9.57-9.54,8.73-1.22,10.56,13.4,3.25,13.81,5.89-1.22,11.17-2.44,15,1,4.67,6.09,4.06,13.42-1.22,16.15-1.22S91.29,145.31,91,143.06Z"/><path class="cls-8" d="M111.43,89.32c2.76-.22,9.15,8.69,10.94,11s1.11,6.39.85,11-3.47,61.32-3.67,65.16-0.49,4.85-3.56,4.85-7.94,0-10.43,0c-2.31,0-3.26-1.17-3.64-9-0.43-8.69-3.2-61.78-3.58-67.2-0.3-4.36,9.8-15.59,13.08-15.84"/><path class="cls-9" d="M111.52,181.32h5c3.07,0,3.37-1,3.56-4.85s3.41-60.56,3.67-65.16,0.93-8.69-.85-11-8.18-11.2-10.94-11Z"/></svg>