<?xml version="1.0" standalone="no"?>
<!DOCTYPE svg PUBLIC "-//W3C//DTD SVG 20010904//EN"
        "http://www.w3.org/TR/2001/REC-SVG-20010904/DTD/svg10.dtd">
<svg version="1.0" xmlns="http://www.w3.org/2000/svg"
     width="300.000000pt" height="300.000000pt" viewBox="0 0 300.000000 300.000000"
     preserveAspectRatio="xMidYMid meet">
    <metadata>
        Created by potrace 1.11, written by Peter Selinger 2001-2013
    </metadata>
    <g transform="translate(0.000000,300.000000) scale(0.100000,-0.100000)"
       fill="#000000" stroke="none">
        <path d="M0 2927 l0 -72 95 -164 c52 -90 95 -166 95 -168 0 -2 13 -24 30 -48
16 -24 30 -46 30 -49 0 -3 64 -114 141 -248 148 -254 165 -284 200 -345 24
-42 286 -496 507 -878 80 -137 154 -266 165 -285 24 -44 204 -356 226 -392
l16 -27 145 250 c244 422 290 502 290 507 0 2 8 16 19 30 18 26 34 54 89 152
14 25 57 99 95 165 39 66 95 163 125 215 30 52 63 111 75 130 11 19 31 55 45
80 14 25 36 62 49 82 12 21 23 40 23 44 0 3 13 26 30 51 16 24 30 46 30 47 0
3 58 105 178 311 19 33 45 78 57 100 12 22 58 101 102 175 43 75 82 142 86
150 4 8 18 33 32 55 20 34 24 53 25 123 l0 82 -1500 0 -1500 0 0 -73z"/>
    </g>
</svg>
