<svg id="Layer_1" data-name="Layer 1" xmlns="http://www.w3.org/2000/svg" xmlns:xlink="http://www.w3.org/1999/xlink" viewBox="0 0 214.05 207.84"><defs><style>.cls-1{fill:url(#linear-gradient);}.cls-2{fill:#000100;fill-opacity:0.41;}.cls-3{fill:url(#linear-gradient-2);}.cls-4{fill:url(#linear-gradient-3);}.cls-5{fill:#79240f;}.cls-6{fill:#1d1d1b;}.cls-7{fill:url(#linear-gradient-4);}.cls-8{fill:#ededed;}.cls-9{fill:url(#linear-gradient-5);}.cls-10{fill:url(#linear-gradient-6);}.cls-11{fill:url(#linear-gradient-7);}.cls-12{fill:url(#linear-gradient-8);}.cls-13{fill:url(#radial-gradient);}.cls-14{fill:#fff;}</style><linearGradient id="linear-gradient" x1="38.37" y1="106.8" x2="184.08" y2="106.8" gradientUnits="userSpaceOnUse"><stop offset="0" stop-color="#5c789f"/><stop offset="0.4" stop-color="#2d3b50"/><stop offset="1" stop-color="#0d0e14"/></linearGradient><linearGradient id="linear-gradient-2" x1="22.78" y1="134.56" x2="209.51" y2="56.83" gradientTransform="translate(-2.07 9.58) rotate(-0.02)" gradientUnits="userSpaceOnUse"><stop offset="0" stop-color="#502a13"/><stop offset="0.35" stop-color="#d08f2a"/><stop offset="0.42" stop-color="#e1d02e"/><stop offset="0.5" stop-color="#f6e580"/><stop offset="0.54" stop-color="#f6e580"/><stop offset="0.6" stop-color="#e1d02e"/><stop offset="0.69" stop-color="#d08f2a"/><stop offset="1" stop-color="#462b16"/></linearGradient><linearGradient id="linear-gradient-3" x1="158.11" y1="159.72" x2="61.59" y2="22.93" gradientTransform="translate(-2.07 9.58) rotate(-0.02)" gradientUnits="userSpaceOnUse"><stop offset="0" stop-color="#ffe12b"/><stop offset="0.14" stop-color="#fff7c7" stop-opacity="0"/><stop offset="0.82" stop-color="#fff7c7" stop-opacity="0"/><stop offset="1" stop-color="#ffe12b"/></linearGradient><linearGradient id="linear-gradient-4" x1="-2.08" y1="-0.19" x2="-0.75" y2="-0.19" gradientTransform="matrix(6.82, 6.65, 6.65, -6.82, 45.99, 169.11)" gradientUnits="userSpaceOnUse"><stop offset="0" stop-color="#da9412"/><stop offset="0.23" stop-color="#efd11b"/><stop offset="0.75" stop-color="#efd11b"/><stop offset="0.91" stop-color="#efd11b"/><stop offset="1" stop-color="#d29011"/></linearGradient><linearGradient id="linear-gradient-5" x1="-0.56" y1="0.14" x2="0.77" y2="0.14" gradientTransform="matrix(30.58, 0, 0, -30.58, 56.92, 140.78)" gradientUnits="userSpaceOnUse"><stop offset="0" stop-color="#fef9de"/><stop offset="1" stop-color="#ffd512"/></linearGradient><linearGradient id="linear-gradient-6" x1="-3.39" y1="-0.36" x2="-2.06" y2="-0.36" gradientTransform="matrix(-6.65, -6.82, 6.82, -6.65, 170.55, 141.68)" xlink:href="#linear-gradient-4"/><linearGradient id="linear-gradient-7" x1="-0.97" y1="0.08" x2="0.36" y2="0.08" gradientTransform="translate(151.89 140.78) rotate(180) scale(30.58)" xlink:href="#linear-gradient-5"/><linearGradient id="linear-gradient-8" x1="66.92" y1="103.44" x2="155.9" y2="103.44" xlink:href="#linear-gradient"/><radialGradient id="radial-gradient" cx="111.41" cy="103.44" r="46.23" gradientUnits="userSpaceOnUse"><stop offset="0" stop-color="#efd802"/><stop offset="0.93" stop-color="#efd802"/><stop offset="0.97" stop-color="#cd7d11"/></radialGradient></defs><title>WoWLogos</title><path class="cls-1" d="M178.36,135.16a73,73,0,1,1,5.72-28.36A73.15,73.15,0,0,1,178.36,135.16Z"/><path class="cls-2" d="M186.17,153.27l-2.09-1.92a80.22,80.22,0,0,0,10-23.49,85.72,85.72,0,0,0-21.42-81.1l6-9.52s3.68-17,1.82-18.43C179,17.58,159.86,22,159.86,22L150,30A85.33,85.33,0,0,0,70.79,31L60.14,22s-19-4.71-20.6-3.51C37.65,19.87,41,36.9,41,36.9l7.1,11.67A85.3,85.3,0,0,0,28.37,85c-5.91,22.84-2.54,45,8.54,63.91a20.35,20.35,0,0,1-2.3,2.67,10,10,0,1,0,9.92,10.67l1-.89a85.41,85.41,0,0,0,129.63,1.93l1.81,1.27c0,0.26.09,0.52,0.15,0.78a10,10,0,1,0,19.35-4.7C195.26,155.53,191.28,152.4,186.17,153.27Zm-13-31.4a64.21,64.21,0,1,1-46-78.4A64.27,64.27,0,0,1,173.15,121.86Z"/><path class="cls-2" d="M195.57,161c-1.1-4.55-4.85-7.72-9.39-6.95l-3.89-3.64a75.78,75.78,0,0,0,9.83-23,83.67,83.67,0,0,0-21.53-79.82l6.51-10.66s3.75-15.76,2.32-16.91-19.17,3.34-19.17,3.34L149.7,32.16a84.24,84.24,0,0,0-78.91.74L60.14,23.63S42.53,18.79,41,20s2,16.95,2,16.95l7.37,12.56A79.81,79.81,0,0,0,30.33,85.51C24.52,108,27.9,129.8,38.9,148.31c0,0-4.17,4.48-4.4,4.48a8.86,8.86,0,1,0,8.83,9.49l3.31-2.77a83.42,83.42,0,0,0,127.47,2l4.12,3c0,0.23.08,0.46,0.13,0.69A8.86,8.86,0,1,0,195.57,161Zm-20.45-38.61A66.25,66.25,0,1,1,127.67,41.5,66.33,66.33,0,0,1,175.12,122.37Z"/><path class="cls-2" d="M194.63,161c-1-4.16-4.3-6.86-8.46-6.16l-5-5A75.57,75.57,0,0,0,190.91,127a82.41,82.41,0,0,0-22.54-79.95L175.86,36s3.27-14.29,2.54-14.85c-1-.75-17,3-17,3l-11.82,9.32a82.12,82.12,0,0,0-78.76,1.2L59.2,25.23s-16-4-17-3.28c-0.74.55,2.32,13.55,2.32,13.55l7.52,13.65A82.5,82.5,0,0,0,40.19,148.1l-5.75,5.5h0a7.94,7.94,0,1,0,8.21,8.24h0l4.27-3.91A82.23,82.23,0,0,0,173.72,160l5,4.19c0,0.21.07,0.42,0.12,0.64A8.1,8.1,0,1,0,194.63,161Zm-18.31-38.35A67.49,67.49,0,1,1,128,40.3h0A67.49,67.49,0,0,1,176.32,122.68Z"/><path id="x" class="cls-3" d="M111.19,25.24A81.18,81.18,0,1,0,192.3,106.4a81.13,81.13,0,0,0-81.11-81.15h0ZM110.86,37A69,69,0,1,1,42.11,105.9,68.76,68.76,0,0,1,110.86,37Z"/><path class="cls-4" d="M109.14,25.78a77,77,0,1,0,76.93,77A76.9,76.9,0,0,0,109.14,25.78Zm-0.34,3.38a73,73,0,0,1,72.87,73c0,40.33-32.6,73.19-72.81,73.21a73.12,73.12,0,0,1-.06-146.24h0Z"/><rect class="cls-5" x="30.82" y="144.17" width="34.19" height="8.62" transform="translate(-90.05 75.63) rotate(-44.28)"/><polygon class="cls-6" points="32.67 157.33 32.19 157.79 38.67 164.44 64.1 139.64 57.16 132.52 31.73 157.32 32.19 157.79 32.67 157.33 33.13 157.8 57.13 134.4 62.22 139.62 38.7 162.56 33.14 156.86 32.67 157.33 33.13 157.8 32.67 157.33"/><circle class="cls-7" cx="35.09" cy="160.99" r="6.32" transform="translate(-102.43 70.23) rotate(-44.28)"/><path class="cls-6" d="M30.68,156.46L30.21,156a7,7,0,1,0,4.88-2,7,7,0,0,0-4.88,2l0.46,0.48,0.46,0.48A5.66,5.66,0,1,1,29.43,161a5.63,5.63,0,0,1,1.71-4.05Z"/><polygon class="cls-8" points="55.85 129.32 67.27 141.02 143.62 71.56 172.2 38.7 176.71 22.88 160.79 26.99 127.22 54.74 55.85 129.32"/><polygon class="cls-6" points="55.85 129.32 55.38 129.78 67.24 141.95 144.09 72.02 172.8 39.02 177.67 21.95 160.48 26.39 126.77 54.26 54.93 129.32 55.38 129.78 55.85 129.32 56.34 129.78 127.67 55.23 161.1 27.6 175.76 23.82 171.61 38.38 143.14 71.09 67.3 140.1 56.33 128.85 55.85 129.32 56.34 129.78 55.85 129.32"/><path class="cls-9" d="M41,114.16A5.5,5.5,0,0,1,48.71,122l28.44,29.16s3.22,3.19,3.3,4.88a3.14,3.14,0,0,1-1,2.8l-0.08.1a5.5,5.5,0,0,1-7.73-7.82L43.16,121.94s-3.22-3.19-3.3-4.88a3.14,3.14,0,0,1,1-2.8Z"/><path class="cls-6" d="M41,114.16l0.46,0.48a4.83,4.83,0,0,1,6.8,6.88l-0.46.46,28.9,29.64h0l0.13,0.13a23.57,23.57,0,0,1,1.74,2,10.48,10.48,0,0,1,.88,1.32,2.59,2.59,0,0,1,.36,1v0.22a2.39,2.39,0,0,1-.78,2l-0.06,0-0.13.16,0.51,0.42-0.46-.48a4.83,4.83,0,0,1-6.8-6.88l0.46-.46-28.9-29.64h0l-0.13-.13a23.57,23.57,0,0,1-1.74-2,10.48,10.48,0,0,1-.88-1.32,2.59,2.59,0,0,1-.36-1v-0.22a2.39,2.39,0,0,1,.78-2l0.06,0,0.13-.16L41,114.16l0.46,0.48L41,114.16l-0.51-.42-0.08.1,0.51,0.42-0.4-.53a3.71,3.71,0,0,0-1.3,3.08v0.28a4.11,4.11,0,0,0,.64,1.78,21,21,0,0,0,2.86,3.54l0.47-.47-0.48.46,28.44,29.16,0.48-.46-0.47-.47a6.16,6.16,0,0,0,8.66,8.77l0,0,0.11-.13-0.51-.42,0.4,0.53a3.71,3.71,0,0,0,1.3-3.08V156a4.11,4.11,0,0,0-.64-1.78,21,21,0,0,0-2.86-3.54l-0.47.47,0.48-.46L49.18,121.52l-0.48.46,0.47,0.47a6.16,6.16,0,0,0-8.66-8.77l0,0,0,0Z"/><rect class="cls-5" x="169.04" y="133.07" width="8.62" height="34.19" transform="translate(-55.18 169.43) rotate(-45.72)"/><polygon class="cls-6" points="188.59 159.01 189.07 159.47 182.59 166.12 157.16 141.32 164.11 134.2 189.53 159 189.07 159.47 188.59 159.01 188.13 159.48 164.13 136.08 159.04 141.3 182.56 164.24 188.12 158.55 188.59 159.01 188.13 159.48 188.59 159.01"/><circle class="cls-10" cx="186.17" cy="162.67" r="6.32" transform="translate(-60.27 182.39) rotate(-45.72)"/><path class="cls-6" d="M190.59,158.14l0.46-.48a7,7,0,1,1-4.88-2,7,7,0,0,1,4.88,2l-0.46.48-0.46.48a5.66,5.66,0,1,0,1.71,4.05,5.63,5.63,0,0,0-1.71-4.05Z"/><polygon class="cls-8" points="165.41 131 153.99 142.71 77.64 73.24 49.06 40.38 44.55 24.57 60.47 28.68 94.04 56.42 165.41 131"/><polygon class="cls-6" points="165.41 131 165.88 131.46 154.02 143.63 77.17 73.7 48.46 40.7 43.59 23.63 60.78 28.07 94.49 55.94 166.33 131 165.88 131.46 165.41 131 164.93 131.46 93.59 56.91 60.16 29.28 45.5 25.5 49.66 40.06 78.12 72.77 153.96 141.78 164.93 130.53 165.41 131 164.93 131.46 165.41 131"/><path class="cls-11" d="M180.28,115.85a5.5,5.5,0,0,0-7.73,7.82l-28.44,29.16s-3.22,3.19-3.3,4.88a3.14,3.14,0,0,0,1,2.8l0.08,0.1a5.5,5.5,0,0,0,7.73-7.82l28.44-29.16s3.22-3.19,3.3-4.88a3.14,3.14,0,0,0-1-2.8Z"/><path class="cls-6" d="M180.28,115.85l-0.46.48a4.83,4.83,0,0,0-6.8,6.88l0.46,0.46-28.9,29.64h0l-0.13.13a23.57,23.57,0,0,0-1.74,2,10.48,10.48,0,0,0-.88,1.32,2.59,2.59,0,0,0-.36,1V158a2.39,2.39,0,0,0,.78,2l0.06,0,0.13,0.16-0.51.42,0.46-.48a4.83,4.83,0,0,0,6.8-6.88l-0.46-.46,28.9-29.64h0l0.13-.13a23.57,23.57,0,0,0,1.74-2,10.48,10.48,0,0,0,.88-1.32,2.59,2.59,0,0,0,.36-1V118.5a2.39,2.39,0,0,0-.78-2l-0.06,0-0.13-.16,0.51-.42-0.46.48,0.46-.48,0.51-.42,0.08,0.1-0.51.42,0.4-.53a3.71,3.71,0,0,1,1.3,3.08v0.28a4.11,4.11,0,0,1-.64,1.78,21,21,0,0,1-2.86,3.54l-0.47-.47,0.48,0.46-28.44,29.16-0.48-.46,0.47-.47a6.16,6.16,0,0,1-8.66,8.77l0,0-0.11-.13,0.51-.42-0.4.53a3.71,3.71,0,0,1-1.3-3.08v-0.28a4.11,4.11,0,0,1,.64-1.78,21,21,0,0,1,2.86-3.54l0.47,0.47-0.48-.46,28.44-29.16,0.48,0.46-0.47.47a6.16,6.16,0,0,1,8.66-8.77l0,0,0,0Z"/><circle class="cls-2" cx="111.22" cy="103.44" r="49.47"/><circle class="cls-2" cx="111.22" cy="103.44" r="51.09"/><circle class="cls-2" cx="111.22" cy="103.44" r="47.74"/><circle class="cls-12" cx="111.41" cy="103.44" r="44.49"/><path class="cls-13" d="M111.41,57.2a46.23,46.23,0,1,0,46.23,46.23A46.24,46.24,0,0,0,111.41,57.2Zm30.23,76.46a42.75,42.75,0,1,1,12.52-30.23A42.61,42.61,0,0,1,141.64,133.66Z"/><polygon class="cls-14" points="70.8 102.84 88 102.84 92.8 81.35 102.99 142.92 109.18 100.34 121.63 100.34 124.45 88.49 131.27 125.42 137.45 100.34 151.65 100.34 151.65 97.7 135.45 97.7 131.7 110.92 124.66 76.21 119.55 97.7 106.89 97.7 102.82 123.07 93.18 67.49 85.88 100.19 70.8 100.19 70.8 102.84 70.8 102.84"/></svg>